<?xml version="1.0" encoding="utf-8"?>
<!-- Generator: Adobe Illustrator 16.0.0, SVG Export Plug-In . SVG Version: 6.00 Build 0)  -->
<!DOCTYPE svg PUBLIC "-//W3C//DTD SVG 1.1//EN" "http://www.w3.org/Graphics/SVG/1.1/DTD/svg11.dtd">
<svg version="1.1" id="Layer_1" xmlns="http://www.w3.org/2000/svg" xmlns:xlink="http://www.w3.org/1999/xlink" x="0px" y="0px"
	 width="831px" height="160px" viewBox="0 0 831 160" enable-background="new 0 0 831 160" xml:space="preserve">
<g>
	<g>
		<defs>
			<rect id="SVGID_1_" x="1" width="830.928" height="224.707"/>
		</defs>
		<clipPath id="SVGID_2_">
			<use xlink:href="#SVGID_1_"  overflow="visible"/>
		</clipPath>
		<path clip-path="url(#SVGID_2_)" fill="#7CB0DF" d="M65.024,69.207c-0.176-4.004-1.024-7.491-2.547-10.451
			c-1.525-2.961-3.594-5.443-6.208-7.447c-2.613-2.002-5.726-3.506-9.341-4.508c-3.615-1-7.556-1.501-11.822-1.501
			c-2.615,0-5.423,0.308-8.428,0.915c-3.004,0.61-5.793,1.678-8.362,3.2c-2.569,1.526-4.683,3.572-6.336,6.141
			c-1.653,2.571-2.482,5.77-2.482,9.602c0,3.746,0.916,6.793,2.744,9.145c1.83,2.354,4.225,4.246,7.186,5.683
			c2.96,1.437,6.358,2.594,10.191,3.463c3.832,0.871,7.709,1.697,11.628,2.482c4.004,0.783,7.905,1.721,11.694,2.808
			c3.786,1.092,7.184,2.571,10.189,4.442c3.005,1.875,5.421,4.313,7.251,7.316c1.828,3.004,2.743,6.773,2.743,11.302
			c0,4.877-1.045,8.974-3.135,12.282c-2.092,3.311-4.726,6.01-7.905,8.1c-3.181,2.09-6.709,3.594-10.583,4.508
			c-3.876,0.916-7.6,1.373-11.171,1.373c-5.486,0-10.626-0.59-15.417-1.767c-4.789-1.175-8.971-3.09-12.541-5.749
			c-3.574-2.652-6.382-6.074-8.428-10.256c-2.046-4.18-3.027-9.275-2.939-15.285h5.75c-0.261,5.141,0.478,9.473,2.22,12.999
			c1.741,3.527,4.16,6.427,7.251,8.688c3.09,2.268,6.729,3.897,10.91,4.896c4.181,1.004,8.578,1.506,13.195,1.506
			c2.786,0,5.77-0.349,8.948-1.048c3.179-0.696,6.096-1.871,8.755-3.526c2.655-1.653,4.876-3.832,6.662-6.531
			c1.785-2.699,2.681-6.096,2.681-10.19c0-3.92-0.917-7.12-2.746-9.603c-1.828-2.483-4.244-4.486-7.251-6.012
			c-3.004-1.521-6.401-2.744-10.189-3.655c-3.79-0.915-7.687-1.765-11.692-2.55c-3.921-0.785-7.795-1.698-11.628-2.742
			c-3.833-1.047-7.231-2.461-10.19-4.247c-2.964-1.784-5.357-4.091-7.186-6.923C4.666,73.239,3.75,69.6,3.75,65.158
			c0-4.441,0.936-8.252,2.811-11.431c1.872-3.179,4.313-5.749,7.316-7.709c3.005-1.96,6.379-3.397,10.125-4.311
			c3.743-0.916,7.447-1.373,11.106-1.373c4.876,0,9.425,0.546,13.652,1.634c4.222,1.089,7.925,2.787,11.105,5.095
			c3.177,2.309,5.726,5.292,7.643,8.951c1.914,3.658,3.006,8.056,3.266,13.194L65.024,69.207L65.024,69.207z"/>
	</g>
	<g>
		<defs>
			<rect id="SVGID_3_" x="1" width="830.928" height="224.707"/>
		</defs>
		<clipPath id="SVGID_4_">
			<use xlink:href="#SVGID_3_"  overflow="visible"/>
		</clipPath>
		<path clip-path="url(#SVGID_4_)" fill="#7CB0DF" d="M138.708,135.837h-4.964v-14.37h-0.261c-0.872,2.526-2.113,4.771-3.724,6.729
			c-1.614,1.961-3.483,3.639-5.616,5.029c-2.138,1.394-4.467,2.439-6.99,3.137c-2.529,0.695-5.097,1.047-7.711,1.047
			c-3.917,0-7.249-0.481-9.992-1.438c-2.746-0.957-4.99-2.221-6.731-3.789c-1.743-1.566-3.115-3.332-4.115-5.291
			c-1-1.961-1.722-3.938-2.156-5.945c-0.435-2.002-0.699-3.938-0.784-5.813c-0.087-1.871-0.131-3.505-0.131-4.9V68.684H90.5v42.46
			c0,1.744,0.13,3.854,0.392,6.336c0.262,2.481,1.022,4.877,2.287,7.187c1.26,2.31,3.156,4.293,5.684,5.944
			c2.525,1.654,6.095,2.482,10.712,2.482c3.745,0,7.123-0.695,10.125-2.093c3.007-1.39,5.554-3.329,7.643-5.813
			c2.092-2.48,3.68-5.442,4.769-8.883c1.087-3.441,1.634-7.209,1.634-11.302v-36.32h4.964L138.708,135.837L138.708,135.837z"/>
	</g>
	<g>
		<rect x="1" fill="none" width="830.928" height="224.707"/>
		<path fill="#7CB0DF" d="M159.351,84.102h0.393c0.522-1.653,1.391-3.484,2.611-5.486c1.221-2.002,2.831-3.854,4.835-5.554
			c2.002-1.699,4.418-3.114,7.251-4.245c2.828-1.132,6.074-1.699,9.732-1.699c5.138,0,9.602,0.958,13.391,2.874
			c3.788,1.918,6.923,4.486,9.408,7.709c2.482,3.223,4.332,6.968,5.552,11.233c1.22,4.271,1.828,8.754,1.828,13.459
			c0,5.14-0.611,9.844-1.833,14.109c-1.222,4.27-3.076,7.948-5.566,11.04c-2.488,3.092-5.632,5.509-9.428,7.252
			c-3.798,1.741-8.272,2.613-13.422,2.613c-5.591,0-10.566-1.224-14.931-3.658c-4.365-2.438-7.552-6.401-9.561-11.892h-0.257
			l-0.004,38.02h-4.835V68.684h4.835L159.351,84.102L159.351,84.102z M184.108,133.094c4.366,0,8.142-0.826,11.329-2.479
			c3.188-1.653,5.807-3.874,7.859-6.662c2.053-2.786,3.583-6.031,4.587-9.735c1.004-3.699,1.505-7.642,1.505-11.822
			c0-3.832-0.481-7.6-1.441-11.303c-0.961-3.701-2.445-7.011-4.453-9.929c-2.01-2.917-4.604-5.269-7.794-7.055
			c-3.188-1.784-7.05-2.678-11.591-2.678c-4.454,0-8.253,0.871-11.396,2.613c-3.144,1.743-5.702,4.05-7.665,6.924
			c-1.966,2.874-3.384,6.162-4.257,9.863c-0.874,3.705-1.31,7.557-1.31,11.563c0,4.008,0.393,7.861,1.179,11.563
			c0.786,3.703,2.118,6.969,3.993,9.801c1.878,2.828,4.41,5.094,7.6,6.792C175.441,132.244,179.394,133.094,184.108,133.094"/>
	</g>
	<g>
		<defs>
			<rect id="SVGID_5_" x="1" width="830.928" height="224.707"/>
		</defs>
		<clipPath id="SVGID_6_">
			<use xlink:href="#SVGID_5_"  overflow="visible"/>
		</clipPath>
		<path clip-path="url(#SVGID_6_)" fill="#7CB0DF" d="M227.811,102.915v0.783c0,3.919,0.522,7.666,1.573,11.235
			c1.045,3.573,2.596,6.709,4.65,9.409c2.05,2.698,4.628,4.831,7.728,6.399c3.098,1.566,6.703,2.352,10.807,2.352
			c6.724,0,12.054-1.762,15.981-5.289c3.931-3.527,6.636-8.429,8.123-14.699h4.966c-1.484,7.838-4.683,13.849-9.604,18.029
			c-4.922,4.184-11.43,6.271-19.531,6.271c-4.964,0-9.3-0.896-13-2.678c-3.703-1.783-6.794-4.226-9.277-7.315
			c-2.482-3.093-4.331-6.749-5.551-10.976c-1.22-4.224-1.829-8.774-1.829-13.652c0-4.704,0.629-9.212,1.894-13.524
			c1.262-4.31,3.158-8.099,5.682-11.365c2.526-3.266,5.685-5.88,9.474-7.838c3.789-1.96,8.252-2.94,13.392-2.94
			c4.704,0,8.86,0.872,12.476,2.612c3.614,1.743,6.641,4.116,9.081,7.12c2.437,3.007,4.288,6.491,5.552,10.453
			c1.262,3.965,1.896,8.211,1.896,12.739c0,0.437-0.025,0.937-0.066,1.501c-0.045,0.566-0.065,1.025-0.065,1.373L227.811,102.915
			L227.811,102.915z M277.196,98.604c-0.177-3.658-0.788-7.121-1.833-10.386c-1.05-3.266-2.599-6.141-4.651-8.624
			c-2.052-2.482-4.541-4.463-7.467-5.944c-2.928-1.48-6.266-2.22-10.02-2.22c-4.018,0-7.557,0.763-10.611,2.285
			c-3.06,1.525-5.635,3.528-7.729,6.01c-2.099,2.482-3.713,5.379-4.848,8.688c-1.135,3.31-1.835,6.707-2.096,10.188L277.196,98.604
			L277.196,98.604z"/>
	</g>
	<g>
		<defs>
			<rect id="SVGID_7_" x="1" width="830.928" height="224.707"/>
		</defs>
		<clipPath id="SVGID_8_">
			<use xlink:href="#SVGID_7_"  overflow="visible"/>
		</clipPath>
		<path clip-path="url(#SVGID_8_)" fill="#7CB0DF" d="M298.753,83.578h0.392c0.609-2.176,1.719-4.223,3.33-6.14
			c1.612-1.915,3.571-3.57,5.88-4.965c2.308-1.393,4.876-2.46,7.708-3.202c2.831-0.738,5.77-1.065,8.818-0.98v4.965
			c-2.612-0.347-5.598-0.085-8.949,0.784c-3.353,0.873-6.555,2.79-9.601,5.748c-1.223,1.308-2.289,2.571-3.204,3.789
			c-0.913,1.222-1.678,2.571-2.285,4.051c-0.61,1.481-1.089,3.136-1.436,4.965c-0.351,1.828-0.569,4.007-0.654,6.532v36.711h-4.966
			V68.685h4.966L298.753,83.578L298.753,83.578z"/>
	</g>
	<g>
		<defs>
			<rect id="SVGID_9_" x="1" width="830.928" height="224.707"/>
		</defs>
		<clipPath id="SVGID_10_">
			<use xlink:href="#SVGID_9_"  overflow="visible"/>
		</clipPath>
		<path clip-path="url(#SVGID_10_)" fill="#7CB0DF" d="M347.746,42.555h38.934c4.092,0,7.924,0.416,11.498,1.241
			c3.568,0.829,6.705,2.177,9.406,4.051c2.7,1.874,4.811,4.333,6.339,7.381c1.521,3.049,2.285,6.837,2.285,11.366
			c0,6.272-1.765,11.563-5.292,15.874c-3.527,4.31-8.427,6.989-14.695,8.037v0.261c4.266,0.521,7.641,1.654,10.123,3.396
			c2.483,1.74,4.333,3.874,5.555,6.4c1.218,2.526,2.001,5.314,2.352,8.36c0.346,3.05,0.521,6.099,0.521,9.146v5.355
			c0,1.743,0.088,3.378,0.262,4.901c0.175,1.522,0.458,2.938,0.851,4.245c0.392,1.306,0.935,2.396,1.632,3.267h-6.4
			c-1.221-2.177-1.895-4.724-2.025-7.644c-0.13-2.918-0.196-5.945-0.196-9.082c0-3.135-0.131-6.246-0.392-9.34
			c-0.261-3.09-1.09-5.856-2.481-8.295c-1.395-2.438-3.593-4.398-6.598-5.879c-3.006-1.48-7.25-2.222-12.739-2.222H353.5v42.461
			h-5.75V42.555H347.746z M386.678,88.412c3.396,0,6.554-0.411,9.471-1.239c2.918-0.827,5.424-2.112,7.513-3.854
			c2.092-1.742,3.745-3.963,4.965-6.665c1.218-2.697,1.83-5.921,1.83-9.667c0-3.481-0.656-6.466-1.961-8.948
			c-1.309-2.483-3.05-4.508-5.228-6.077c-2.176-1.565-4.701-2.697-7.576-3.396c-2.875-0.696-5.878-1.044-9.016-1.044h-33.184v40.891
			L386.678,88.412L386.678,88.412z"/>
	</g>
	<g>
		<defs>
			<rect id="SVGID_11_" x="1" width="830.928" height="224.707"/>
		</defs>
		<clipPath id="SVGID_12_">
			<use xlink:href="#SVGID_11_"  overflow="visible"/>
		</clipPath>
		<path clip-path="url(#SVGID_12_)" fill="#7CB0DF" d="M430.965,102.915v0.783c0,3.919,0.523,7.666,1.574,11.235
			c1.047,3.573,2.597,6.709,4.648,9.409c2.052,2.698,4.631,4.831,7.729,6.399c3.102,1.566,6.703,2.352,10.811,2.352
			c6.725,0,12.055-1.762,15.979-5.289c3.933-3.527,6.64-8.429,8.125-14.699h4.965c-1.484,7.838-4.684,13.849-9.604,18.029
			c-4.918,4.184-11.429,6.271-19.532,6.271c-4.962,0-9.297-0.896-12.998-2.678c-3.705-1.783-6.795-4.226-9.274-7.315
			c-2.479-3.091-4.334-6.749-5.552-10.976c-1.224-4.224-1.83-8.774-1.83-13.652c0-4.704,0.633-9.212,1.896-13.524
			c1.26-4.31,3.154-8.099,5.683-11.365c2.526-3.266,5.685-5.88,9.473-7.838c3.789-1.96,8.251-2.94,13.393-2.94
			c4.706,0,8.864,0.872,12.477,2.612c3.615,1.743,6.646,4.116,9.079,7.12c2.439,3.007,4.293,6.491,5.559,10.453
			c1.258,3.965,1.892,8.211,1.892,12.739c0,0.437-0.021,0.937-0.063,1.501c-0.051,0.566-0.07,1.025-0.07,1.373L430.965,102.915
			L430.965,102.915z M480.354,98.604c-0.175-3.658-0.785-7.121-1.835-10.386c-1.049-3.266-2.599-6.141-4.65-8.624
			c-2.051-2.482-4.541-4.463-7.466-5.944c-2.927-1.48-6.266-2.22-10.021-2.22c-4.021,0-7.557,0.763-10.614,2.285
			c-3.056,1.525-5.631,3.528-7.728,6.01c-2.097,2.482-3.712,5.379-4.846,8.688c-1.137,3.31-1.834,6.707-2.099,10.188L480.354,98.604
			L480.354,98.604z"/>
	</g>
	<g>
		<defs>
			<rect id="SVGID_13_" x="1" width="830.928" height="224.707"/>
		</defs>
		<clipPath id="SVGID_14_">
			<use xlink:href="#SVGID_13_"  overflow="visible"/>
		</clipPath>
		<path clip-path="url(#SVGID_14_)" fill="#7CB0DF" d="M547.506,89.458c-0.264-2.96-1.025-5.572-2.286-7.838
			c-1.265-2.265-2.896-4.136-4.899-5.618c-2.004-1.479-4.334-2.613-6.989-3.396c-2.656-0.784-5.509-1.177-8.558-1.177
			c-4.184,0-7.885,0.851-11.104,2.547c-3.226,1.7-5.925,3.966-8.102,6.793c-2.181,2.832-3.834,6.055-4.964,9.67
			c-1.136,3.615-1.698,7.338-1.698,11.168c0,4.531,0.522,8.711,1.565,12.543c1.047,3.834,2.658,7.168,4.833,9.996
			c2.179,2.83,4.878,5.029,8.104,6.598c3.22,1.568,7.009,2.352,11.364,2.352c3.138,0,6.029-0.521,8.688-1.564
			c2.655-1.047,5.008-2.482,7.054-4.313s3.726-4.028,5.032-6.598c1.306-2.569,2.177-5.378,2.612-8.429h4.962
			c-0.521,4.01-1.611,7.58-3.267,10.713c-1.655,3.138-3.744,5.771-6.271,7.904c-2.525,2.135-5.398,3.77-8.623,4.898
			c-3.219,1.132-6.618,1.697-10.188,1.697c-5.487,0-10.171-0.979-14.046-2.938c-3.872-1.958-7.052-4.592-9.535-7.903
			c-2.483-3.309-4.31-7.119-5.486-11.431c-1.176-4.312-1.765-8.819-1.765-13.524c0-4.703,0.677-9.144,2.026-13.325
			c1.347-4.179,3.329-7.839,5.941-10.974s5.835-5.617,9.671-7.447c3.827-1.829,8.229-2.744,13.191-2.744
			c3.657,0,7.074,0.457,10.257,1.372c3.178,0.914,6.011,2.287,8.49,4.117c2.482,1.828,4.51,4.159,6.075,6.989
			c1.569,2.831,2.524,6.121,2.874,9.863H547.506L547.506,89.458z"/>
	</g>
	<g>
		<defs>
			<rect id="SVGID_15_" x="1" width="830.928" height="224.707"/>
		</defs>
		<clipPath id="SVGID_16_">
			<use xlink:href="#SVGID_15_"  overflow="visible"/>
		</clipPath>
		<path clip-path="url(#SVGID_16_)" fill="#7CB0DF" d="M678.678,83.578h0.395c0.605-2.176,1.719-4.223,3.33-6.14
			c1.609-1.915,3.571-3.57,5.879-4.965c2.306-1.393,4.879-2.46,7.709-3.202c2.828-0.738,5.769-1.065,8.815-0.98v4.965
			c-2.61-0.347-5.598-0.085-8.946,0.784c-3.354,0.873-6.558,2.79-9.604,5.748c-1.224,1.308-2.284,2.571-3.201,3.789
			c-0.915,1.222-1.68,2.571-2.288,4.051c-0.607,1.481-1.089,3.136-1.438,4.965c-0.347,1.828-0.566,4.007-0.651,6.532v36.711h-4.962
			V68.685h4.962V83.578L678.678,83.578z"/>
	</g>
	<g>
		<defs>
			<rect id="SVGID_17_" x="1" width="830.928" height="224.707"/>
		</defs>
		<clipPath id="SVGID_18_">
			<use xlink:href="#SVGID_17_"  overflow="visible"/>
		</clipPath>
		<path clip-path="url(#SVGID_18_)" fill="#7CB0DF" d="M760.331,121.467h-0.261c-2.786,5.313-6.271,9.299-10.452,11.955
			c-4.182,2.655-9.273,3.985-15.284,3.985c-5.053,0-9.408-0.959-13.065-2.875c-3.654-1.914-6.663-4.486-9.013-7.709
			c-2.352-3.224-4.095-6.943-5.229-11.171c-1.131-4.223-1.697-8.644-1.697-13.26c0-4.966,0.607-9.604,1.827-13.914
			c1.22-4.312,3.069-8.035,5.557-11.17c2.48-3.136,5.594-5.619,9.341-7.447c3.743-1.829,8.143-2.744,13.193-2.744
			c2.7,0,5.354,0.37,7.972,1.112c2.612,0.74,5.027,1.808,7.252,3.2c2.22,1.393,4.158,3.135,5.813,5.225
			c1.652,2.091,2.915,4.442,3.786,7.055h0.261V42.556h4.966v93.281h-4.966L760.331,121.467L760.331,121.467z M735.379,133.094
			c4.266,0,7.945-0.867,11.039-2.609c3.091-1.743,5.66-4.051,7.707-6.928c2.047-2.871,3.57-6.16,4.574-9.863
			c1.001-3.7,1.503-7.467,1.503-11.301c0-3.92-0.502-7.729-1.503-11.433c-1.004-3.702-2.504-7.009-4.507-9.928
			c-2.005-2.918-4.597-5.247-7.774-6.99c-3.181-1.742-6.903-2.613-11.171-2.613c-4.441,0-8.229,0.848-11.363,2.547
			c-3.139,1.698-5.729,3.985-7.773,6.859c-2.051,2.875-3.527,6.187-4.443,9.929c-0.914,3.748-1.372,7.622-1.372,11.629
			c0,3.92,0.503,7.729,1.506,11.433c0.999,3.702,2.522,6.989,4.568,9.864c2.05,2.873,4.64,5.158,7.776,6.856
			C727.277,132.244,731.021,133.094,735.379,133.094"/>
	</g>
	<g>
		<defs>
			<rect id="SVGID_19_" x="1" width="830.928" height="224.707"/>
		</defs>
		<clipPath id="SVGID_20_">
			<use xlink:href="#SVGID_19_"  overflow="visible"/>
		</clipPath>
		<path clip-path="url(#SVGID_20_)" fill="#7CB0DF" d="M783.458,113.497c0.173,3.136,0.868,5.899,2.091,8.297
			c1.223,2.396,2.81,4.44,4.77,6.142c1.959,1.697,4.248,2.983,6.858,3.854c2.612,0.87,5.442,1.307,8.491,1.307
			c2.178,0,4.51-0.195,6.989-0.587c2.482-0.395,4.792-1.108,6.924-2.155c2.138-1.047,3.898-2.504,5.292-4.379
			c1.393-1.869,2.095-4.244,2.095-7.119c0-3.744-1.138-6.576-3.399-8.491c-2.267-1.915-5.115-3.399-8.559-4.443
			c-3.439-1.045-7.144-1.896-11.104-2.547c-3.967-0.653-7.666-1.634-11.107-2.94c-3.44-1.306-6.293-3.154-8.558-5.552
			c-2.268-2.394-3.396-5.897-3.396-10.517c0-3.311,0.739-6.075,2.222-8.297c1.479-2.22,3.373-3.983,5.686-5.291
			c2.306-1.306,4.898-2.242,7.771-2.809c2.875-0.565,5.749-0.849,8.621-0.849c3.485,0,6.75,0.392,9.802,1.176
			c3.049,0.782,5.687,2.046,7.9,3.789c2.225,1.742,3.966,3.963,5.229,6.663c1.26,2.698,1.895,5.965,1.895,9.798h-4.966
			c0-3.047-0.503-5.661-1.505-7.84c-1.003-2.176-2.396-3.939-4.18-5.291c-1.784-1.35-3.899-2.352-6.334-3.004
			c-2.44-0.654-5.057-0.98-7.844-0.98c-2.264,0-4.551,0.217-6.854,0.653c-2.311,0.436-4.379,1.174-6.209,2.22
			c-1.828,1.046-3.328,2.397-4.505,4.05c-1.177,1.655-1.768,3.659-1.768,6.01c0,2.701,0.653,4.878,1.964,6.531
			c1.305,1.655,3.021,2.984,5.158,3.984c2.133,1.002,4.527,1.809,7.188,2.419c2.654,0.61,5.333,1.22,8.033,1.828
			c3.312,0.61,6.422,1.329,9.341,2.155c2.918,0.828,5.443,1.961,7.579,3.396c2.133,1.438,3.813,3.289,5.027,5.553
			c1.22,2.265,1.83,5.142,1.83,8.625c0,3.656-0.829,6.66-2.481,9.016c-1.654,2.352-3.743,4.244-6.27,5.684
			c-2.529,1.438-5.341,2.438-8.429,3.004c-3.095,0.566-6.12,0.851-9.082,0.851c-3.832,0-7.379-0.501-10.646-1.503
			c-3.267-0.999-6.122-2.522-8.562-4.571c-2.438-2.046-4.354-4.551-5.75-7.513c-1.391-2.961-2.131-6.4-2.219-10.321L783.458,113.497
			L783.458,113.497z"/>
	</g>
	<g>
		<defs>
			<rect id="SVGID_21_" x="1" width="830.928" height="224.707"/>
		</defs>
		<clipPath id="SVGID_22_">
			<use xlink:href="#SVGID_21_"  overflow="visible"/>
		</clipPath>
		<path clip-path="url(#SVGID_22_)" fill="#6A757B" d="M641.334,135.875h-68.628V67.246h68.628V135.875z M576.71,131.873h60.622
			V71.248H576.71V131.873z"/>
	</g>
	<g>
		<defs>
			<rect id="SVGID_23_" x="1" width="830.928" height="224.707"/>
		</defs>
		<clipPath id="SVGID_24_">
			<use xlink:href="#SVGID_23_"  overflow="visible"/>
		</clipPath>
		<polygon clip-path="url(#SVGID_24_)" fill="#04AE53" points="580.28,81.574 612.031,121.543 732.425,0 610.608,101 		"/>
	</g>
	<g>
		<defs>
			<rect id="SVGID_25_" x="1" width="830.928" height="224.707"/>
		</defs>
		<clipPath id="SVGID_26_">
			<use xlink:href="#SVGID_25_"  overflow="visible"/>
		</clipPath>
	</g>
	<g>
		<defs>
			<rect id="SVGID_27_" x="1" width="830.928" height="224.707"/>
		</defs>
		<clipPath id="SVGID_28_">
			<use xlink:href="#SVGID_27_"  overflow="visible"/>
		</clipPath>
	</g>
	<g>
		<defs>
			<rect id="SVGID_29_" x="1" width="830.928" height="224.707"/>
		</defs>
		<clipPath id="SVGID_30_">
			<use xlink:href="#SVGID_29_"  overflow="visible"/>
		</clipPath>
		<path clip-path="url(#SVGID_30_)" fill="#FFFFFF" d="M177.466,224.13h-1.773"/>
	</g>
	<g>
		<defs>
			<rect id="SVGID_31_" x="1" width="830.928" height="224.707"/>
		</defs>
		<clipPath id="SVGID_32_">
			<use xlink:href="#SVGID_31_"  overflow="visible"/>
		</clipPath>
	</g>
	<g>
		<defs>
			<rect id="SVGID_33_" x="1" width="830.928" height="224.707"/>
		</defs>
		<clipPath id="SVGID_34_">
			<use xlink:href="#SVGID_33_"  overflow="visible"/>
		</clipPath>
	</g>
	<g>
		<defs>
			<rect id="SVGID_35_" x="1" width="830.928" height="224.707"/>
		</defs>
		<clipPath id="SVGID_36_">
			<use xlink:href="#SVGID_35_"  overflow="visible"/>
		</clipPath>
	</g>
	<g>
		<defs>
			<rect id="SVGID_37_" x="1" width="830.928" height="224.707"/>
		</defs>
		<clipPath id="SVGID_38_">
			<use xlink:href="#SVGID_37_"  overflow="visible"/>
		</clipPath>
	</g>
	<g>
		<defs>
			<rect id="SVGID_39_" x="1" width="830.928" height="224.707"/>
		</defs>
		<clipPath id="SVGID_40_">
			<use xlink:href="#SVGID_39_"  overflow="visible"/>
		</clipPath>
	</g>
	<g>
		<defs>
			<rect id="SVGID_41_" x="1" width="830.928" height="224.707"/>
		</defs>
		<clipPath id="SVGID_42_">
			<use xlink:href="#SVGID_41_"  overflow="visible"/>
		</clipPath>
	</g>
	<g>
		<defs>
			<rect id="SVGID_43_" x="1" width="830.928" height="224.707"/>
		</defs>
		<clipPath id="SVGID_44_">
			<use xlink:href="#SVGID_43_"  overflow="visible"/>
		</clipPath>
		<path clip-path="url(#SVGID_44_)" fill="#FFFFFF" d="M338.678,219.818c0.448,0.768,1.03,1.396,1.749,1.895
			c0.719,0.494,1.528,0.854,2.423,1.079c0.893,0.222,1.854,0.334,2.876,0.334c1.694,0,3.108-0.257,4.243-0.767
			c1.136-0.514,2.038-1.178,2.709-1.99 M354.147,221.45c-0.782,0.985-1.859,1.776-3.229,2.372c-1.373,0.59-3.111,0.886-5.214,0.886
			c-1.307,0-2.536-0.136-3.684-0.407s-2.152-0.703-3.013-1.294c-0.863-0.592-1.555-1.374-2.081-2.349"/>
	</g>
	<g>
		<defs>
			<rect id="SVGID_45_" x="1" width="830.928" height="224.707"/>
		</defs>
		<clipPath id="SVGID_46_">
			<use xlink:href="#SVGID_45_"  overflow="visible"/>
		</clipPath>
	</g>
	<g>
		<defs>
			<rect id="SVGID_47_" x="1" width="830.928" height="224.707"/>
		</defs>
		<clipPath id="SVGID_48_">
			<use xlink:href="#SVGID_47_"  overflow="visible"/>
		</clipPath>
	</g>
	<g>
		<defs>
			<rect id="SVGID_49_" x="1" width="830.928" height="224.707"/>
		</defs>
		<clipPath id="SVGID_50_">
			<use xlink:href="#SVGID_49_"  overflow="visible"/>
		</clipPath>
	</g>
	<g>
		<defs>
			<rect id="SVGID_51_" x="1" width="830.928" height="224.707"/>
		</defs>
		<clipPath id="SVGID_52_">
			<use xlink:href="#SVGID_51_"  overflow="visible"/>
		</clipPath>
	</g>
	<g>
		<defs>
			<rect id="SVGID_53_" x="1" width="830.928" height="224.707"/>
		</defs>
		<clipPath id="SVGID_54_">
			<use xlink:href="#SVGID_53_"  overflow="visible"/>
		</clipPath>
	</g>
	<g>
		<defs>
			<rect id="SVGID_55_" x="1" width="830.928" height="224.707"/>
		</defs>
		<clipPath id="SVGID_56_">
			<use xlink:href="#SVGID_55_"  overflow="visible"/>
		</clipPath>
	</g>
	<g>
		<defs>
			<rect id="SVGID_57_" x="1" width="830.928" height="224.707"/>
		</defs>
		<clipPath id="SVGID_58_">
			<use xlink:href="#SVGID_57_"  overflow="visible"/>
		</clipPath>
	</g>
	<g>
		<defs>
			<rect id="SVGID_59_" x="1" width="830.928" height="224.707"/>
		</defs>
		<clipPath id="SVGID_60_">
			<use xlink:href="#SVGID_59_"  overflow="visible"/>
		</clipPath>
	</g>
	<g>
		<defs>
			<rect id="SVGID_61_" x="1" width="830.928" height="224.707"/>
		</defs>
		<clipPath id="SVGID_62_">
			<use xlink:href="#SVGID_61_"  overflow="visible"/>
		</clipPath>
	</g>
	<g>
		<defs>
			<rect id="SVGID_63_" x="1" width="830.928" height="224.707"/>
		</defs>
		<clipPath id="SVGID_64_">
			<use xlink:href="#SVGID_63_"  overflow="visible"/>
		</clipPath>
		<path clip-path="url(#SVGID_64_)" fill="#FFFFFF" d="M582.122,219.818c0.446,0.768,1.032,1.396,1.751,1.895
			c0.72,0.494,1.523,0.854,2.419,1.079c0.896,0.222,1.854,0.334,2.878,0.334c1.697,0,3.107-0.257,4.247-0.767
			c1.132-0.514,2.035-1.178,2.707-1.99 M597.596,221.45c-0.785,0.985-1.861,1.776-3.23,2.372c-1.373,0.59-3.109,0.886-5.213,0.886
			c-1.312,0-2.537-0.136-3.687-0.407c-1.146-0.271-2.15-0.703-3.014-1.294c-0.861-0.592-1.556-1.374-2.082-2.349"/>
	</g>
	<g>
		<defs>
			<rect id="SVGID_65_" x="1" width="830.928" height="224.707"/>
		</defs>
		<clipPath id="SVGID_66_">
			<use xlink:href="#SVGID_65_"  overflow="visible"/>
		</clipPath>
	</g>
	<g>
		<defs>
			<rect id="SVGID_67_" x="1" width="830.928" height="224.707"/>
		</defs>
		<clipPath id="SVGID_68_">
			<use xlink:href="#SVGID_67_"  overflow="visible"/>
		</clipPath>
	</g>
	<g>
		<defs>
			<rect id="SVGID_69_" x="1" width="830.928" height="224.707"/>
		</defs>
		<clipPath id="SVGID_70_">
			<use xlink:href="#SVGID_69_"  overflow="visible"/>
		</clipPath>
	</g>
	<g>
		<defs>
			<rect id="SVGID_71_" x="1" width="830.928" height="224.707"/>
		</defs>
		<clipPath id="SVGID_72_">
			<use xlink:href="#SVGID_71_"  overflow="visible"/>
		</clipPath>
	</g>
	<g>
		<defs>
			<rect id="SVGID_73_" x="1" width="830.928" height="224.707"/>
		</defs>
		<clipPath id="SVGID_74_">
			<use xlink:href="#SVGID_73_"  overflow="visible"/>
		</clipPath>
	</g>
</g>
</svg>
