<?xml version="1.0" standalone="no"?>
<!DOCTYPE svg PUBLIC "-//W3C//DTD SVG 1.1//EN" "http://www.w3.org/Graphics/SVG/1.1/DTD/svg11.dtd" >
<svg xmlns="http://www.w3.org/2000/svg">
<metadata>Generated by IcoMoon</metadata>
<defs>
<font id="sricons" horiz-adv-x="512">
<font-face units-per-em="512" ascent="480" descent="-32" />
<missing-glyph horiz-adv-x="512" />
<glyph unicode="&#x20;" d="" horiz-adv-x="256" />
<glyph unicode="&#xe600;" d="M256 480c-141.363 0-256-114.637-256-256 0-141.414 114.637-256 256-256 141.414 0 256 114.586 256 256 0 141.363-114.586 256-256 256zM392.53 206.93h-273.060c-9.4 0-17.070 7.67-17.070 17.070 0 9.431 7.67 17.060 17.070 17.060h273.070c9.401 0 17.060-7.629 17.060-17.060 0-9.401-7.659-17.070-17.070-17.070z" />
<glyph unicode="&#xe601;" d="M256 480c-141.363 0-256-114.637-256-256 0-141.414 114.637-256 256-256 141.414 0 256 114.586 256 256 0 141.363-114.586 256-256 256zM392.53 206.93h-119.46v-119.46c0-9.411-7.67-17.070-17.070-17.070-9.431 0-17.060 7.659-17.060 17.070v119.46h-119.47c-9.4 0-17.070 7.67-17.070 17.070 0 9.431 7.67 17.060 17.070 17.060h119.47v119.47c0 9.401 7.629 17.070 17.060 17.070 9.401 0 17.070-7.67 17.070-17.070v-119.47h119.46c9.411 0 17.070-7.629 17.070-17.060 0-9.401-7.659-17.070-17.070-17.070z" />
<glyph unicode="&#xe602;" d="M396.002 239.995l-122.972 0.133v134.533c0.041 9.421-7.608 17.070-17.070 17.070-9.39 0-17.029-7.639-17.060-17.049l0.030-132.7-123.382-0.922c-9.41-0.020-17.070-7.68-17.060-17.060 0-9.462 7.65-17.101 17.070-17.060l123.402 0.921-0.010-134.502c0-9.431 7.639-17.060 17.049-17.050 9.441-0.010 17.081 7.629 17.049 17.050l0.041 132.649 122.911-0.113c9.421-0.051 17.060 7.608 17.050 17.050 0 9.4-7.639 17.040-17.050 17.049zM437.022 405.012c-99.983 99.983-262.052 99.983-362.035 0-99.984-99.973-99.984-262.052 0-362.035 99.983-99.973 262.052-99.973 362.035 0 99.963 99.983 99.963 262.062 0 362.035zM412.866 67.134c-86.487-86.487-227.256-86.507-313.753-0.010-86.518 86.507-86.477 227.267 0.010 313.753 86.487 86.498 227.226 86.518 313.743 0 86.507-86.498 86.507-227.246 0-313.743z" />
<glyph unicode="&#xe603;" d="M53.392 328.612h124.139v112.927h152.484v-119.173h42.865v157.645h-241.337l-120.986-109.424v-401.152h266.158v38.523h-223.324v320.656zM375.962 126.873v118.917h-45.015v-118.917h-125.327v-40.018h125.317v-118.856h45.015v118.846h125.481v40.018h-125.471z" />
<glyph unicode="&#xe604;" d="M161.884 320.102c1.331-8.1 4.434-13.22 7.516-16.466 7.332-48.804 48.22-94.177 85.555-94.177 43.469 0 83.098 49.111 90.767 94.096 3.195 3.205 6.318 8.377 7.721 16.558 2.468 9.155 5.663 25.078 0.072 32.492-0.327 0.399-0.604 0.747-0.942 1.075 5.335 19.241 11.93 58.941-11.848 85.986-2.068 2.734-15.462 18.626-43.961 27.075l-13.66 4.659c-22.364 6.963-36.505 8.478-37.11 8.571-1.004 0.082-2.058 0-3.031-0.297-0.798-0.205-3.471-0.921-5.53-0.625-5.386 0.738-13.424-1.997-14.848-2.56-1.874-0.717-45.292-18.145-58.511-58.614-1.208-3.267-6.471-20.51 0.492-62.679-1.065-0.696-1.925-1.597-2.765-2.662-5.622-7.383-2.447-23.276 0.082-32.43zM424.12 173.824c0 0-8.858 12.053-29.839 20.111 0 0-1.792 0.533-4.526 1.403-18.647 8.786-36.444 14.387-36.444 14.387-3.789 1.403-7.188 2.734-10.189 4.055-12.606 6.247-23.183 13.281-25.477 19.968 0.021 0.010 0.031 0.030 0.041 0.041-0.195 0.614-0.195 0.994-0.195 0.994-0.748-1.444-1.485-2.631-2.212-4.086 0.788 1.034 1.567 1.956 2.345 3.031l9.513-76.257-68.976-171.008-65.137 167.404 1.331 80.016c-5.898-18.483-76.595-39.956-76.595-39.956-21.064-7.977-29.88-20.101-29.88-20.101-31.109-46.162-34.775-142.336-34.775-142.336 0.43-23.44 10.486-25.836 10.486-25.836 71.496-31.908 183.696-37.56 183.696-37.56 6.031-0.144 11.663 0.164 17.285 0.461l0.174-0.553c0 0 112.138 5.673 183.624 37.581 0 0 10.117 2.416 10.517 25.897 0 0-3.656 96.185-34.765 142.346zM194.621 234.383c0 0 0-0.143 0.061-0.307l-0.133 0.666-0.174-0.829c0.030 0.185 0.174 0.327 0.246 0.471zM228.188 201.615l30.597-46.848 30.587 46.848c-33.782-14.408-61.184 0-61.184 0zM258.786 3.615l23.388 135.885-23.388 15.278-23.409-15.278 23.409-135.885z" />
<glyph unicode="&#xe605;" d="M256.543 480c-71.506 0-138.127-40.192-138.127-110.736v-308.941c0-50.903 50.401-92.324 101.959-92.324 50.043 0 92.18 38.871 94.73 87.582 0.051 0.809 0.103 1.526 0.103 2.345v246.969c0 31.314-28.211 56.811-59.883 56.811-31.683 0-57.436-25.508-57.436-56.811v-198.369c0-11.776 5.868-21.269 17.602-21.269 11.776 0 21.268 9.493 21.268 21.269v198.37c0 7.895 10.352 14.285 18.565 14.285s21.012-6.38 21.012-14.285v-244.583c0-27.443-27.802-55.9-55.962-55.9-28.15 0-61.87 28.457-61.87 55.9v308.941c0 47.084 49.94 68.25 98.038 68.25s97.014-21.166 97.014-68.25v-261.509c0-11.786 9.543-21.269 21.269-21.269 11.735 0 18.77 9.482 18.77 21.269v261.519c0 70.543-65.546 110.736-137.052 110.736z" />
<glyph unicode="&#xe606;" d="M353.003 5.182c0-1.7-1.362-3.031-3.010-3.031h-284.743c-1.669 0-3.031 1.331-3.031 3.031v405.187c0 1.669 1.362 3.021 3.031 3.021h13.988v-21.279c0.532-12.892-1.475-30.157 19.938-30.157h220.099c16.579 0 16.722 13.517 16.722 30.157v21.811h13.998c1.649 0 3.010-1.341 3.010-3.021v-146.545l33.556 18.104v143.422c0 11.643-9.452 22.18-21.063 22.18h-66.375l2.427-12.063c0.215-0.932 0.338-1.751 0.338-2.56v-41.851c0-6.666-3.81-12.083-10.455-12.083h-165.519c-6.626 0-12.032 5.417-12.032 12.083v41.851c0 0.788 0.112 1.628 0.317 2.56l2.427 12.063h-67.42c-11.623 0-21.084-10.526-21.084-22.18v-436.757c0-11.632 9.462-21.125 21.084-21.125l135.465 0.533h182.436c11.623 0 20.019 8.428 20.019 20.060v111.442l-34.12-18.094v-76.759zM141.179 396.728h132.854c5.868 0 10.608 4.752 10.608 10.629v30.167c0 5.878-4.741 10.619-10.608 10.619h-32.246c0 17.602-14.91 31.856-33.28 31.856-18.381 0-33.29-14.254-33.29-31.856h-34.007c-5.868 0-10.608-4.741-10.608-10.619v-30.167c0-5.868 4.741-10.629 10.578-10.629zM232.141 99.502c-0.686-0.666-2.601-2.58-3.277-5.264-0.154-0.307-0.266-0.635-0.389-0.942l-24.934-78.397c-0.676-2.192-0.215-6.021 1.198-7.454s3.625-1.884 5.816-1.209l78.224 26.614c0.307 0.103 0.635 0.226 0.942 0.358 2.683 0.717 4.587 2.591 5.284 3.298l149.873 150.231-62.853 63.017-149.883-150.252zM243.067 30.935l-16.476 16.538 10.363 32.625 38.697-38.779-32.584-10.384zM379.607 216.637l-116.839-117.135c-2.253-2.233-5.847-2.233-8.069 0-2.232 2.233-2.232 5.837 0 8.11l116.859 117.094c2.212 2.222 5.827 2.222 8.048 0 2.233-2.202 2.233-5.837 0-8.069zM126.638 252.365l-23.46-23.49 80.496-80.691 130.53 130.816-23.45 23.511-107.079-107.305-57.037 57.16zM479.887 243.763l-40.99 41.083c-6.052 6.042-16.743 5.171-23.849-1.986l-22.558-22.6 62.853-62.996 22.569 22.61c7.117 7.127 7.998 17.828 1.976 23.89z" />
<glyph unicode="&#xe607;" d="M482.857 396.001c-7.24 7.24-15.81 10.855-25.723 10.855h-36.557v27.433c0 12.575-4.485 23.327-13.435 32.286-8.95 8.94-19.712 13.425-32.286 13.425h-18.279c-12.585 0-23.337-4.485-32.286-13.435-8.96-8.96-13.435-19.712-13.435-32.286v-27.433h-109.701v27.443c0 12.575-4.485 23.327-13.435 32.286-8.95 8.94-19.722 13.424-32.286 13.424h-18.279c-12.585 0-23.337-4.485-32.286-13.435-8.96-8.95-13.435-19.712-13.435-32.276v-27.433h-36.578c-9.913 0-18.483-3.625-25.723-10.855-7.23-7.24-10.855-15.81-10.855-25.723v-365.712c0-9.902 3.625-18.473 10.855-25.712 7.25-7.229 15.821-10.854 25.723-10.854h402.279c9.902 0 18.483 3.625 25.712 10.865 7.24 7.24 10.865 15.81 10.865 25.712v365.701c0 9.913-3.625 18.483-10.854 25.723zM137.144 4.567h-82.288v82.288h82.279v-82.288zM137.144 105.154h-82.288v91.423h82.279v-91.423zM137.144 214.856h-82.288v82.279h82.279v-82.279zM130.724 345.57c-1.813 1.813-2.724 3.952-2.724 6.43v82.279c0 2.478 0.912 4.618 2.724 6.43s3.952 2.714 6.43 2.714h18.279c2.478 0 4.618-0.901 6.43-2.714s2.714-3.952 2.714-6.43v-82.279c0-2.478-0.911-4.618-2.714-6.43-1.813-1.813-3.952-2.714-6.43-2.714h-18.279c-2.488 0-4.629 0.901-6.43 2.714zM246.856 4.567h-91.433v82.288h91.433v-82.288zM246.856 105.154h-91.433v91.423h91.433v-91.423zM246.856 214.856h-91.433v82.279h91.433v-82.279zM356.567 4.567h-91.433v82.288h91.433v-82.288zM356.567 105.154h-91.433v91.423h91.433v-91.423zM356.567 214.856h-91.433v82.279h91.433v-82.279zM350.137 345.57c-1.813 1.813-2.714 3.952-2.714 6.43v82.279c0 2.478 0.901 4.618 2.714 6.43s3.952 2.714 6.43 2.714h18.279c2.478 0 4.618-0.901 6.43-2.714s2.724-3.952 2.724-6.43v-82.279c0-2.478-0.911-4.618-2.724-6.43-1.802-1.813-3.952-2.714-6.43-2.714h-18.279c-2.478 0-4.618 0.901-6.43 2.714zM457.144 4.567h-82.288v82.288h82.288v-82.288zM457.144 105.154h-82.288v91.423h82.288v-91.423zM457.144 214.856h-82.288v82.279h82.288v-82.279z" />
<glyph unicode="&#xe608;" d="M448 336.005h-96.020c-35.338 0-64-28.651-64-64h-255.98l-32-32.010 32-64 31.969 32 32-32 32.041 32 31.97-32h128c0-35.328 28.662-64.010 64-64.010h96.020c35.318 0 64 28.682 64 64.010v96c0 35.358-28.682 64.010-64 64.010zM480 160c0-8.837-7.147-16.005-16.005-16.005-8.817 0-15.995 7.168-15.995 16.005v128c0 8.857 7.168 16.005 15.995 16.005 8.858 0 16.005-7.137 16.005-16.005v-128z" />
<glyph unicode="&#xe609;" d="M358.728 64.604h-303.237v303.637h303.237v-15.985l54.61 47.483v24.422h-413.337v-414.649h413.337v262.011l-54.61-69.15v-137.769zM131.614 308.726l-22.067-24.238 141.127-163.932 261.325 297.144-19.394 20.787-241.94-187.76-119.050 58z" />
<glyph unicode="&#xe60a;" d="M162.98 224.010c0-51.353 41.728-93.041 93.010-93.041 51.262 0 92.948 41.687 92.948 93.041 0 51.241-41.687 92.979-92.948 92.979-51.282 0-93.010-41.738-93.010-92.979zM494.408 317.481h-146.811c24.259-23.767 39.353-56.965 39.353-93.471 0-27.76-8.581-53.524-23.337-74.608l-104.704-181.401c140.053 1.587 253.092 115.538 253.092 256.010 0 32.932-6.247 64.502-17.592 93.471zM255.99 354.99c3.83 0 7.577-0.164 11.325-0.492h208.916c-44.606 75.111-126.546 125.502-220.242 125.502-81.008 0-153.201-37.642-200.131-96.409l73.267-126.894c14.551 56.453 65.935 98.294 126.863 98.294zM255.99 92.959c-52.418 0-97.68 30.935-118.651 75.53l-104.499 181.002c-20.91-37.099-32.84-79.872-32.84-125.481 0-128.461 94.525-234.752 217.795-253.174l73.287 126.884c-11.172-3.092-22.917-4.762-35.093-4.762z" />
<glyph unicode="&#xe60b;" d="M153.979 361.195h187.3v33.945h-187.843l0.542-33.945zM153.979 292.362h221.614v33.925h-221.614v-33.925zM68.188 480v-442.911h51.302v33.454h-17.264v375.47h307.527v-374.938h-102.37v-34.509h136.428v443.433h-375.623zM272.752 133.079l-0.44-4.219c-0.778-7.004-4.874-13.189-10.998-16.712-6.062-3.502-13.578-3.901-20.019-1.086l-3.932 1.721-2.581-3.451c-4.147-5.663-10.823-9.001-17.889-9.001s-13.732 3.338-17.91 9.001l-2.56 3.451-3.932-1.721c-6.441-2.806-13.906-2.406-20.040 1.086-6.134 3.522-10.199 9.707-10.977 16.712l-0.471 4.219-4.27 0.471c-2.375 0.276-1.731 1.382-3.84 2.304v-167.854l63.969 44.124 72.54-44.124v167.854c-2.11-0.952-10.025-2.038-12.38-2.304l-4.27-0.471zM168.11 175.565l-8.94-20.101 21.995-2.375 2.406-21.822 20.234 8.837 13.087-17.715 13.066 17.715 20.265-8.837 2.396 21.822 21.975 2.416-8.899 20.081 17.838 12.985-17.838 13.005 8.899 20.081-21.975 2.375-2.396 21.822-20.265-8.847-13.066 17.705-13.087-17.705-20.234 8.847-2.406-21.821-21.995-2.375 8.94-20.080-17.869-13.005 17.869-13.005zM216.893 215.757c15.135 0 27.392-12.206 27.392-27.197 0-15.043-12.268-27.197-27.392-27.197-15.114 0-27.371 12.165-27.371 27.197 0 14.991 12.268 27.197 27.371 27.197z" />
<glyph unicode="&#xe60c;" d="M400.865 108.708c-67.113 24.474-88.555 33.433-88.555 77.619 0 26.553 20.48 17.858 29.522 66.437 3.728 20.173 21.811 0.307 25.272 46.315 0 18.35-9.841 22.907-9.841 22.907s5.007 27.126 6.953 48.005c2.437 26.020-15.022 93.256-108.185 93.256s-110.695-67.216-108.206-93.235c1.946-20.88 6.963-48.005 6.963-48.005s-9.84-4.557-9.84-22.907c3.461-46.009 21.545-26.153 25.273-46.316 9.042-48.579 29.522-39.895 29.522-66.437 0-44.185-21.463-53.145-88.555-77.619-67.4-24.525-111.186-49.531-111.186-66.642 0-17.060 0-57.365 0-57.365h512c0 0 0 40.305 0 57.365 0 17.111-43.755 42.117-111.135 66.622z" />
<glyph unicode="&#xe60d;" d="M110.305 309.392c1.126-1.25 1.782-2.642 1.987-4.219 6.605-43.469 43.141-75.479 75.192-75.479 37.703 0 73.492 35.574 80.333 75.51 0.276 1.556 0.911 2.949 1.904 4.014 2.693 2.673 4.567 6.728 5.406 11.684 4.096 15.278 3.399 23.481 1.567 25.958l-1.137 1.454c-1.168 1.813-1.536 4.024-0.962 6.144 5.007 18.514 10.384 52.951-9.769 75.858-2.13 2.755-13.814 16.65-38.902 24.064l-13.752 4.72c-19.938 6.073-33.147 7.752-34.202 7.752l-1.28-0.297c-1.3-0.266-2.386-0.43-3.533-0.532l-1.208-0.144-0.020 0.389-5.642-0.338-0.758-0.164c-2.755-0.45-5.366-1.239-6.768-1.792-6.748-2.755-41.001-18.35-51.865-51.733-1.403-3.922-5.489-19.527 0.778-57.118 0.441-2.888-0.758-5.724-3.257-7.537l-0.635-0.737c-2.509-3.83-2.192-13.026 0.973-24.474 1.065-6.052 2.826-10.158 5.55-12.984zM314.594 287.631c0.819-0.973 1.321-2.068 1.567-3.287 4.823-32.144 31.795-55.716 55.501-55.716 27.863 0 54.334 26.204 59.33 55.716 0.195 1.229 0.717 2.314 1.505 3.133 1.976 1.966 3.308 4.905 3.901 8.53 3.216 12.063 2.284 17.654 1.229 19.046l-0.809 1.075c-0.952 1.403-1.198 3.102-0.819 4.792 3.707 13.68 7.711 39.137-7.147 56.054-1.608 2.089-10.209 12.318-28.754 17.797l-10.209 3.512c-14.49 4.434-24.494 5.745-25.334 5.755l-1.26-0.286c-0.574-0.113-1.413-0.266-2.284-0.327l-1.137-0.092-0.031 0.246-3.84-0.195-0.574-0.154c-2.099-0.338-3.993-0.921-5.007-1.3-4.956-2.058-30.29-13.558-38.308-38.257-1.075-2.887-4.055-14.52 0.563-42.24 0.389-2.284-0.563-4.495-2.529-5.918l-0.44-0.491c-1.772-2.734-1.515-9.493 0.819-17.849 0.768-4.506 2.017-7.506 4.065-9.543zM487.987 187.034c-0.502 0.727-6 7.322-18.668 12.165l-2.416 0.768c-13.865 6.43-25.897 10.281-26.399 10.445-2.622 0.87-5.038 1.822-7.926 3.134-2.775 1.341-5.264 2.673-7.598 4.065l-1.321 0.788 0.246 0.286-2.171 1.024c-1.822 0.88-5.95 3.85-8.192 5.959l-2.457 1.188-0.87-0.707c-12.267-10.619-25.641-16.22-38.553-16.22-12.298 0-25.784 6.329-38.021 17.797l-1.127 1.085-1.157-1.085c-2.192-2.018-4.096-4.106-5.488-5.571-0.625-0.635-1.209-1.26-1.874-1.639-3.891-2.786-9.124-5.765-15.483-8.735 4.485-1.853 8.889-3.738 13.036-5.714l2.539-0.697c16.026-6.154 27.054-15.012 32.041-21.218l1.086-1.26c24.822-36.925 32.226-107.868 34.334-137.994 23.224 2.079 78.397 8.53 116.787 25.743 0.727 0.368 3.533 3.051 3.656 13.179-0.236 7.281-3.563 72.919-24.002 103.209zM319.212 190.997l-3.358 1.014c-18.555 8.612-34.826 13.865-35.502 14.131-3.492 1.127-6.789 2.396-10.619 4.096-3.789 1.915-7.106 3.687-10.23 5.519l-1.31 0.819 0.368 0.338-3.389 1.669c-2.488 1.25-7.977 5.223-11.070 8.018l-3.605 1.782-1.372-1.147c-16.487-14.254-34.345-21.719-51.62-21.719-16.456 0-34.54 8.428-50.873 23.818l-1.894 1.72-1.822-1.72c-3.277-3.031-6.082-6.073-7.434-7.537-0.819-0.819-1.597-1.639-2.376-2.079-18.565-13.466-52.51-24.709-66.253-28.949-15.596-5.97-23.429-15.094-24.832-16.855-28.733-42.711-32.020-138.466-32.020-139.448 0.246-12.718 4.045-17.101 5.335-17.603 63.949-28.498 163.911-35.021 175.094-35.717h2.959c3.799 0 7.864 0.195 12.78 0.563h0.625c0.758 0 1.393-0.092 2.007-0.276l0.522-0.154 0.482 0.062c17.92 1.127 110.602 8.253 171.991 35.717 1.034 0.686 4.976 4.281 5.192 18.135-0.461 9.923-5.069 98.673-32.44 139.305-0.256 0.338-7.721 9.779-25.334 16.497z" />
<glyph unicode="&#xe60e;" d="M306.033 223.99l195.615 195.687c13.814 13.803 13.814 36.219 0 50.022-13.803 13.742-36.209 13.742-49.95 0l-195.676-195.686-195.696 195.686c-13.803 13.742-36.219 13.742-50.023 0-13.742-13.803-13.742-36.219 0-50.022l195.676-195.687-195.676-195.676c-13.742-13.742-13.742-36.147 0-49.95 13.803-13.814 36.219-13.814 50.023 0l195.686 195.615 195.676-195.615c13.742-13.814 36.147-13.814 49.95 0 13.814 13.803 13.814 36.209 0 49.95l-195.605 195.676z" />
<glyph unicode="&#xe60f;" d="M332.636 283.331c-61.625 0-56.034 0-117.647 0-15.452 0-15.452-24.125 0-24.125 61.625 0 56.034 0 117.647 0 15.462 0 15.462 24.125 0 24.125zM332.636 211.149c-61.625 0-56.034 0-117.647 0-15.452 0-15.452-24.125 0-24.125 61.625 0 56.034 0 117.647 0 15.462 0 15.462 24.125 0 24.125zM332.636 359.711c-61.625 0-56.034 0-117.647 0-15.452 0-15.452-24.105 0-24.105 61.625 0 56.034 0 117.647 0 15.462 0 15.462 24.105 0 24.105zM171.12 365.773h-33.464c-1.208 0-2.191-0.727-2.191-1.649v-33.884c0-0.922 0.994-1.649 2.191-1.649h33.464c1.208 0 2.171 0.727 2.171 1.649v33.884c0.010 0.911-0.952 1.649-2.171 1.649zM169.072 290.519h-33.464c-1.198 0-2.161-0.727-2.161-1.669v-33.884c0-0.891 0.963-1.628 2.161-1.628h33.464c1.208 0 2.191 0.738 2.191 1.628v33.884c0.010 0.922-0.983 1.669-2.191 1.669zM169.072 217.303h-33.464c-1.198 0-2.161-0.758-2.161-1.649v-33.884c0-0.932 0.963-1.659 2.161-1.659h33.464c1.208 0 2.191 0.727 2.191 1.659v33.884c0.010 0.891-0.983 1.649-2.191 1.649zM169.072 141.302h-33.464c-1.198 0-2.161-0.727-2.161-1.68v-33.863c0-0.921 0.963-1.649 2.161-1.649h33.464c1.208 0 2.191 0.727 2.191 1.649v33.863c0.010 0.952-0.983 1.68-2.191 1.68zM414.638 112.702l-23.993 16.834-53.412-76.872-27.31 27.76-20.767-20.695 51.958-52.787 73.523 105.759zM399.708 169.329v289.444h-52.050v21.228h-225.813v-21.228h-57.897v-436.726h184.177v-54.046h199.926v201.329h-48.343zM248.125 134.769h-33.137c-15.452 0-15.452-24.115 0-24.115h33.137v-56.647h-152.361v372.798h26.082v-21.218h225.813v21.218h20.265v-257.474h-119.798v-34.56zM426.844-10.69h-157.522v158.71h157.522v-158.71z" />
<glyph unicode="&#xe610;" d="M128 288.973c14.663 0 28.334 4.25 39.926 11.52 3.666 23.89 16.558 44.779 34.969 59.003 0.030 1.382 0.185 2.775 0.185 4.188 0 41.298-33.628 74.762-75.070 74.762-41.482 0-75.111-33.464-75.111-74.762-0.010-41.267 33.618-74.711 75.1-74.711zM352.266 296.048c9.625-4.495 20.368-7.076 31.744-7.076 41.452 0 75.070 33.465 75.070 74.711 0 41.308-33.618 74.762-75.070 74.762-41.113 0-74.455-32.87-75.038-73.615 23.664-14.776 40.254-39.782 43.294-68.782zM259.789 211.784c41.442 0 75.079 33.495 75.079 74.772s-33.628 74.721-75.079 74.721c-41.482 0-75.111-33.444-75.111-74.742-0.010-41.298 33.618-74.752 75.111-74.752zM195.41 219.719c-16.968 16.22-27.74 38.748-28.518 63.785-2.375 0.184-4.669 0.368-7.035 0.368h-63.744c-53.002-0.010-96.112-42.936-96.112-95.734v-77.538l0.195-1.198 5.366-1.7c40.55-12.595 76.779-18.462 108.267-20.224v23.399c-0.010 51.323 34.468 94.884 81.582 108.841zM415.856 283.863h-63.222c-0.707-25.18-11.479-47.851-28.56-64.154 47.125-13.957 81.561-57.518 81.561-108.83v-23.88c62.454 2.243 98.427 19.876 100.793 21.063l5.048 2.539h0.522v77.538c0 52.798-43.1 95.724-96.144 95.724zM291.615 206.715h-63.714c-53.002 0-96.154-42.937-96.154-95.744v-77.538l0.195-1.219 5.406-1.68c50.555-15.739 94.515-20.982 130.714-20.982 70.666 0 111.586 20.060 114.135 21.32l4.997 2.56h0.563v77.538c0.031 52.808-43.12 95.744-96.144 95.744z" />
<glyph unicode="&#xe611;" d="M264.202 451.676c-136.847 0-247.787-86.425-247.787-192.942 0-50.432 25.262-112.752 65.956-147.138-1.567-33.495-57.569-92.037-82.371-115.272 47.34 0 145.613 46.377 174.326 68.598 28.201-8.683 57.754 0.962 89.876 0.962 136.847 0 247.798 86.375 247.798 192.85 0 106.516-110.951 192.942-247.798 192.942z" />
<glyph unicode="&#xe612;" d="M499.21 437.258h-486.441c-7.056 0-12.77-5.703-12.77-12.718v-357.683c0-7.014 5.714-12.667 12.77-12.667h178.596v-21.033c0-0.44 0.082-0.86 0.123-1.27h-19.856c-6.441 0-10.352-6.492-10.352-12.923 0-6.421 3.911-8.233 10.352-8.233h174.418c6.482 0 8.377 2.488 8.377 8.868 0 6.471-1.904 12.278-8.377 12.278h-26.603c0.051 0.409 0.164 0.829 0.164 1.27v21.033h179.61c7.076 0 12.779 5.663 12.779 12.667v357.693c-0.031 7.014-5.765 12.718-12.79 12.718zM490.793 109.793c0-6.994-5.714-12.697-12.769-12.697h-444.754c-7.045 0-12.77 5.714-12.77 12.697v295.629c0 7.014 5.724 12.697 12.77 12.697h444.754c7.055 0 12.769-5.693 12.769-12.697v-295.629z" />
<glyph unicode="&#xe613;" d="M446.003 423.906h-47.493v41.851c0 7.864-20.634 14.244-28.498 14.244s-28.488-6.38-28.488-14.244v-41.851h-171.858v41.851c0 7.864-21.524 14.244-29.389 14.244s-26.716-6.38-26.716-14.244v-41.851h-47.483c-26.337-2.673-40.663-18.77-37.99-66.488v-351.427c0-21.002 16.998-37.99 37.99-37.99h379.925c21.002 0 37.99 16.988 37.99 37.99v351.426c2.663 48.599-16.998 66.488-37.99 66.488zM426.998 33.598c0-5.243-4.27-9.502-9.502-9.502h-322.928c-5.233 0-9.493 4.26-9.493 9.502v323.82c0 5.233 4.27 9.502 9.493 9.502h18.995v-42.742c0-7.864 18.852-14.244 26.716-14.244s29.389 6.38 29.389 14.244v42.742h171.858v-42.742c0-7.864 20.634-14.244 28.488-14.244 7.875 0 28.498 6.38 28.498 14.244v42.742h18.985c5.233 0 9.502-4.27 9.502-9.502v-323.82zM113.561 53.483h56.986v56.105h-56.986v-56.105zM227.543 53.483h56.094v56.105h-56.094v-56.105zM341.524 53.483h56.986v56.105h-56.986v-56.105zM113.561 138.957h56.986v56.105h-56.986v-56.105zM227.543 138.957h56.094v56.105h-56.094v-56.105zM341.524 138.957h56.986v56.105h-56.986v-56.105zM113.561 224.451h56.986v56.095h-56.986v-56.094zM227.543 224.451h56.094v56.095h-56.094v-56.094zM341.524 224.451h56.986v56.095h-56.986v-56.094z" />
<glyph unicode="&#xe614;" d="M350.474 342.63l-93.819-93.86-84.132 93.86c-6.666 6.636-17.5 6.636-24.125 0-6.677-6.686-6.677-17.5 0-24.136l84.162-93.86-95.129-95.109c-6.666-6.666-6.666-17.469 0-24.105 6.666-6.687 17.48-6.687 24.115 0l93.829 93.767 84.193-93.767c6.635-6.687 17.449-6.687 24.115 0 6.635 6.635 6.635 17.438 0 24.105l-84.234 93.839 95.13 95.13c6.687 6.636 6.687 17.449 0 24.136-6.635 6.646-17.438 6.646-24.105 0zM256 480c-141.394 0-256-114.606-256-256 0-141.404 114.606-256 256-256 141.404 0 256 114.596 256 256 0 141.394-114.596 256-256 256zM256 2.151c-122.317 0-221.87 99.533-221.87 221.85 0 122.347 99.553 221.86 221.87 221.86s221.85-99.512 221.85-221.86c0-122.317-99.533-221.85-221.85-221.85z" />
<glyph unicode="&#xe615;" d="M92.867 18.545c0-27.894 22.405-50.534 50.002-50.534h226.13c27.658 0 50.012 22.64 50.012 50.534v354.724h-326.144v-354.724zM334.131 309.063c0 9.472 7.557 17.152 16.978 17.152 9.349 0 16.968-7.68 16.968-17.152v-274.76c0-9.523-7.618-17.203-16.967-17.203-9.421 0-16.978 7.68-16.978 17.203v274.76zM239.544 309.063c0 9.472 7.567 17.152 16.978 17.152 9.349 0 16.978-7.68 16.978-17.152v-274.76c0-9.523-7.629-17.203-16.978-17.203-9.411 0-16.978 7.68-16.978 17.203v274.76zM144.958 309.063c0 9.472 7.567 17.152 16.978 17.152 9.349 0 16.978-7.68 16.978-17.152v-274.76c0-9.523-7.629-17.203-16.978-17.203-9.411 0-16.978 7.68-16.978 17.203v274.76zM386.908 453.017h-68.894c-1.618 15.186-14.264 26.972-29.625 26.972h-64.798c-15.472 0-28.068-11.776-29.675-26.972h-68.834c-33.721 0-61.031-27.597-61.215-61.666h384.236c-0.154 34.069-27.413 61.666-61.194 61.666z" />
<glyph unicode="&#xe616;" d="M232.53 113.111c5.888-5.837 13.824-9.144 22.057-9.144s16.169 3.246 22.057 9.144l125.686 125.143c12.196 12.144 12.196 31.795 0 43.94-12.135 12.124-31.846 12.124-44.063 0l-72.478-72.253v239.084c0 17.162-14.009 31.047-31.202 31.047s-31.191-13.885-31.191-31.047v-239.084l-72.438 72.192c-12.257 12.144-31.98 12.144-44.114 0.051-12.144-12.144-12.144-31.857 0-43.94l125.686-125.133zM485.458 183.070c-17.244 0-22.538-13.875-22.538-31.017v-136.325h-416.666v136.325c0 17.142-5.294 31.017-22.538 31.017-17.193 0-23.921-13.875-23.921-31.017v-152.914c0-17.193 13.947-31.068 31.14-31.068h448.768c17.193 0 31.13 13.875 31.13 31.068v152.914c0 17.132-8.171 31.017-25.375 31.017z" />
<glyph unicode="&#xe617;" d="M0.010-32l55.746 7.26-48.486 48.435-7.26-55.695zM15.831 89.293l-5.745-43.817 67.4-67.328 43.766 5.642 298.168 298.168-105.472 105.472-298.117-298.137zM506.685 395.591l-79.094 79.033c-3.512 3.584-8.274 5.376-12.933 5.376-5.038 0-10.076-1.945-13.978-5.847l-71.946-72.008 105.431-105.41 71.987 71.936c7.588 7.588 7.793 19.609 0.533 26.921z" />
<glyph unicode="&#xe618;" d="M488.868 384.266h-465.787l232.919-204.493 232.868 204.493zM0 367.421v-286.669l163.236 143.319-163.236 143.35zM256 142.623l-71.649 62.884-161.403-141.773h466.105l-161.454 141.762-71.598-62.873zM348.764 224.071l163.236-143.319v286.669l-163.236-143.35z" />
<glyph unicode="&#xe619;" d="M49.142 301.148c6.482-4.588 26-18.125 58.562-40.745 32.584-22.569 57.559-39.957 74.865-52.132 1.925-1.31 5.939-4.199 12.124-8.714 6.236-4.485 11.356-8.11 15.472-10.865 4.096-2.765 9.031-5.847 14.879-9.277 5.796-3.44 11.264-6 16.384-7.731 5.171-1.69 9.912-2.56 14.295-2.56h0.583c4.393 0 9.134 0.87 14.254 2.56 5.171 1.731 10.629 4.291 16.476 7.731 5.796 3.481 10.772 6.523 14.827 9.277 4.106 2.755 9.226 6.38 15.421 10.865 6.185 4.505 10.24 7.404 12.135 8.714 17.541 12.165 62.137 43.151 133.755 92.867 13.865 9.707 25.508 21.453 34.786 35.133 9.349 13.732 14.039 28.119 14.039 43.151 0 12.575-4.536 23.337-13.578 32.276-9.031 8.94-19.763 13.435-32.185 13.435h-420.526c-14.643 0-25.948-4.966-33.822-14.827-7.966-9.954-11.889-22.323-11.889-37.171 0-11.981 5.274-24.976 15.708-38.994 10.486-13.998 21.648-25.026 33.434-32.993zM341.094 171.991c-10.824-7.977-19.62-14.213-26.378-18.698-6.769-4.495-15.76-9.042-27.013-13.732-11.274-4.69-21.699-7.014-31.406-7.014h-0.583c-9.708 0-20.194 2.325-31.447 7.014-11.223 4.69-20.203 9.226-26.972 13.732-6.758 4.485-15.606 10.721-26.429 18.698-25.754 18.841-73.063 51.743-142.008 98.57-10.834 7.239-20.45 15.555-28.857 24.893v-226.867c0-12.565 4.485-23.337 13.445-32.276 8.93-8.99 19.712-13.435 32.266-13.435h420.577c12.514 0 23.286 4.444 32.226 13.435 8.99 8.93 13.486 19.712 13.486 32.266v226.877c-8.212-9.175-17.736-17.449-28.611-24.893-62.433-42.281-109.875-75.141-142.295-98.57z" />
<glyph unicode="&#xe61a;" d="M415.805 443.515h-69.376c-5.529 6.062-13.425 9.943-22.252 9.943h-30.208v5.12c0 11.848-14.397 21.422-32.195 21.422-17.746 0-32.113-9.575-32.113-21.422v-5.12h-30.218c-8.827 0-16.712-3.881-22.262-9.943h-80.999c-8.325 0-14.981-6.727-14.981-15.022v-445.491c0-8.295 6.646-14.981 14.981-14.981h319.621c8.253 0 14.981 6.687 14.981 14.981v445.481c0 8.295-6.728 15.032-14.981 15.032zM398.756-0.041h-286.567v412.56h58.809c4.076-11.889 15.207-31.365 28.446-31.365h124.733c13.209 0 24.351 19.476 28.437 31.365h46.142v-412.56zM144.773 317.594h222.126v30.791h-222.126v-30.791zM144.773 252.826h222.126v32.819h-222.126v-32.819zM144.773 189.932h222.126v31.815h-222.126v-31.815zM316.457 162.857c-31.396-24.484-56.986-54.692-82.913-84.613-11.070 11.725-21.136 24.228-27.618 39.209-7.342 17.173-35.277-7.762-28.642-23.152 9.042-20.971 25.139-38.021 41.072-54.067 6.482-6.605 17.582 0.819 22.077 5.939 28.395 32.276 54.846 66.202 88.976 92.784 16.404 12.718 6.584 39.055-12.954 23.9z" />
<glyph unicode="&#xe61b;" d="M363.459 284.242h-62.484l-44.135-65.085-44.226 65.085h-62.444l74.875-111.923-84.501-124.437h121.026v42.301h-27.894l23.173 34.591 51.415-76.892h64.798l-84.459 124.437 74.855 111.923zM442.142 387.932l-65.956 65.945c-14.408 14.315-42.742 26.122-63.068 26.122h-232.366c-20.337 0-36.956-16.62-36.956-36.956v-438.087c0-20.388 16.62-36.956 36.956-36.956h350.505c20.377 0 36.935 16.568 36.935 36.946v319.918c0.010 20.327-11.755 48.702-26.050 63.068zM350.024 437.258c2.017-1.392 3.799-2.837 5.264-4.291l65.956-65.945c1.444-1.454 2.877-3.185 4.24-5.212h-75.459v75.449zM438.682 4.946c0-4.004-3.379-7.424-7.424-7.424h-350.505c-4.004 0-7.373 3.42-7.373 7.424v438.098c0 4.004 3.379 7.424 7.373 7.424h232.366c2.222 0 4.721-0.286 7.424-0.819v-117.361h117.361c0.481-2.652 0.778-5.161 0.778-7.424v-319.918z" />
<glyph unicode="&#xe61c;" d="M256 480c-141.374 0-256-114.626-256-256 0-141.384 114.626-256 256-256 141.384 0 256 114.616 256 256 0 141.374-114.616 256-256 256zM382.618 142.623l-45.24-45.24-81.377 81.367-81.377-81.367-45.25 45.24 81.377 81.377-81.377 81.377 45.25 45.25 81.377-81.377 81.377 81.377 45.24-45.25-81.367-81.377 81.367-81.377z" />
<glyph unicode="&#xe61d;" d="M255.99 480c-141.127 0-255.97-114.821-255.97-255.99s114.841-256.010 255.97-256.010c141.168 0 255.99 114.841 255.99 256.010 0 141.148-114.821 255.99-255.99 255.99zM255.99 9.308c-118.375 0-214.692 96.276-214.692 214.702 0 118.395 96.317 214.722 214.692 214.722 118.416 0 214.743-96.327 214.743-214.722 0-118.416-96.327-214.702-214.743-214.702zM233.943 129.28h40.734v39.906h-40.734v-39.906zM305.767 301.118c-5.017 5.007-11.602 9.195-19.835 12.575-8.212 3.379-18.462 5.069-30.72 5.069-9.472 0-18.094-1.597-25.785-4.813-7.68-3.164-14.244-7.608-19.722-13.353-5.438-5.673-9.625-12.411-12.656-20.214-3.031-7.782-4.659-16.333-4.813-25.682h38.124c0 4.69 0.461 9.031 1.516 13.097 1.044 4.055 2.642 7.598 4.813 10.619 2.13 3.031 4.925 5.478 8.304 7.301 3.349 1.782 7.342 2.693 12.002 2.693 6.953 0 12.349-1.884 16.231-5.703 3.87-3.789 5.827-9.666 5.827-17.613 0.195-4.659-0.625-8.601-2.457-11.694-1.813-3.102-4.229-5.97-7.096-8.55-2.949-2.56-6.175-5.141-9.595-7.782-3.451-2.581-6.758-5.632-9.902-9.206-3.062-3.512-5.816-7.803-8.151-12.81-2.334-5.017-3.727-11.233-4.27-18.658v-11.694h35.011v9.872c0.707 5.192 2.375 9.502 5.069 12.943 2.663 3.461 5.735 6.533 9.175 9.206 3.461 2.683 7.106 5.356 11.049 8.038 3.83 2.683 7.414 5.95 10.578 9.728 3.226 3.82 5.909 8.387 8.069 13.742 2.151 5.356 3.226 12.206 3.226 20.48 0 5.007-1.075 10.404-3.226 16.21-2.14 5.776-5.755 11.192-10.762 16.2z" />
<glyph unicode="&#xe61e;" d="M252.601 479.979c-141.383-1.894-254.474-118.046-252.58-259.43 1.895-141.302 118.037-254.423 259.42-252.529 141.342 1.904 254.454 118.036 252.539 259.43-1.863 141.333-118.006 254.423-259.379 252.529v0zM251.853 68.168h-1.423c-21.76 0.645-37.12 16.702-36.505 38.154 0.614 21.074 16.333 36.403 37.397 36.403l1.28-0.031c22.374-0.666 37.561-16.558 36.905-38.615-0.615-21.125-16.108-35.911-37.653-35.911v0zM343.429 249.928c-5.14-7.26-16.384-16.302-30.577-27.351l-15.637-10.803c-8.571-6.666-13.742-12.943-15.657-19.077-1.557-4.905-2.284-6.154-2.416-16.026l-0.031-2.529h-59.638l0.174 5.058c0.727 20.757 1.25 32.952 9.851 43.049 13.496 15.831 43.284 35 44.534 35.81 4.25 3.226 7.844 6.871 10.537 10.773 6.257 8.622 9.022 15.442 9.022 22.087 0 9.267-2.765 17.838-8.182 25.457-5.233 7.383-15.166 11.111-29.532 11.111-14.244 0-23.982-4.536-29.829-13.803-6.042-9.554-9.042-19.538-9.042-29.778v-2.56h-61.491l0.113 2.673c1.587 37.683 15.022 64.778 39.957 80.619 15.637 10.097 35.113 15.196 57.826 15.196 29.747 0 54.907-7.24 74.67-21.483 20.029-14.449 30.188-36.086 30.188-64.307-0.031-15.81-5.007-30.638-14.838-44.114v0z" />
<glyph unicode="&#xe61f;" d="M510.659 184.433c0.973 8.581 1.341 17.449 1.341 26.45 0 42.178-11.294 81.808-31.099 115.927 20.47 54.364 19.722 100.485-7.68 128.103-26.010 25.886-95.908 21.719-174.951-13.261-5.827 0.409-11.745 0.615-17.705 0.615-108.411 0-199.414-74.608-224.563-175.186 33.997 43.571 69.817 75.182 117.606 98.171-4.342-4.055-29.696-29.317-33.956-33.587-126.106-126.044-165.857-290.673-123.106-333.476 32.522-32.533 91.495-27.024 159.161 6.103 31.498-16.015 67.113-25.017 104.847-25.017 101.622 0 187.842 65.382 218.982 156.539h-125.154c-17.224-31.764-50.913-53.371-89.61-53.371-38.656 0-72.315 21.606-89.57 53.371-7.69 14.356-12.063 30.873-12.063 48.2v0.42h327.516zM472.105 429.179c17.634-17.808 17.152-50.626 2.11-91.587-25.836 39.455-63.426 70.523-107.807 88.238 47.472 20.357 86.006 23.019 105.697 3.348zM280.555 337.387c51.865 0 94.372-40.755 97.29-91.883h-194.53c2.877 51.129 45.404 91.883 97.239 91.883zM49.203 6.298c-22.518 22.498-15.718 69.806 13.302 126.75 18.053-50.606 53.207-93.235 98.581-120.576-50.217-22.876-91.331-26.706-111.882-6.175z" />
<glyph unicode="&#xe620;" d="M461.445-19.241v385.219c0 3.543-1.474 6.912-4.065 9.319l-82.565 101.284c-2.416 2.202-5.488 3.42-8.694 3.42h-302.868c-7.014 0-12.718-5.714-12.718-12.738v-486.502c0-7.024 5.703-12.759 12.718-12.759h392.038c7.004 0 6.154 5.735 6.154 12.759zM180.244 192.43c-8.643 2.806-15.862 6.707-21.504 11.632-6.349 5.499-9.523 14.695-9.523 27.341 0 22.129 10.189 35.471 31.027 40.663v-79.637zM433.316-5.488l-231.004-0.717v24.043c24.177 2.171 43.52 11.377 57.58 27.515 14.715 16.896 18.852 37.007 18.852 59.832 0 21.924-5.939 39.639-17.746 52.603-11.387 12.483-28.416 21.781-58.675 28.375v85.688c17.337-3.911 26.553-15.36 28.221-34.795 0.195-2.212 2.038-3.87 4.239-3.87h36.506c0.031 0 0.062 0 0.062 0 2.12 0.133 4.332 1.853 4.332 4.239 0 0.573-0.133 1.116-0.338 1.618-4.752 42.096-29.297 65.731-73.022 70.246v39.783c0 2.345-1.874 4.24-4.239 4.24h-13.63c-2.304 0-4.208-1.905-4.208-4.24v-39.844c-22.344-2.704-40.51-10.854-54.036-24.197-14.469-14.274-21.781-33.25-21.781-56.412 0-40.438 25.518-66.489 75.817-77.456v-96.051c-22.375 5.478-34.427 21.586-36.844 48.978-0.195 2.12-2.038 3.789-4.239 3.789h-36.301c-1.168 0-2.273-0.461-3.103-1.331-0.778-0.86-1.209-2.007-1.136-3.175 3.615-50.104 31.027-78.858 81.623-85.678v-23.962l-104.837-0.348v461.271h255.642v-116.941c0-7.024 5.683-12.729 12.697-12.729h89.57v-330.476zM202.322 54.897v89.641c13.261-4.004 22.344-8.817 26.952-14.356 5.212-6.205 7.813-15.36 7.813-27.259 0-27.719-11.387-43.449-34.765-48.026zM357.97 351.938v88.023l77.558-88.023h-77.558z" />
<glyph unicode="&#xe621;" d="M371.702 454.851h-51.486v25.149h-25.518v-25.149h-154.962v25.149h-23.931v-25.149h-52.327v-410.204h308.224v410.204zM345.467 70.082h-256.502v360.919h26.839v-27.034h23.931v27.034h155.034v-27.453h25.508v27.453h25.2v-360.919zM188.754 337.121c1.915-16.036 15.678-32.645 28.17-32.645 14.407 0 28.017 17.48 30.157 32.645 0.778 0.563 2.13 1.925 2.59 5.1 0 0 3.072 10.957-1.004 9.789 1.454 4.24 6.144 20.695-2.929 30.935 0 0-4.239 5.837-14.633 8.95-0.379 0.297-0.727 0.604-1.167 0.901 0 0 0.236-0.266 0.573-0.748-0.583 0.185-1.198 0.297-1.833 0.482-0.573 0.614-1.239 1.209-1.935 1.843 0 0 0.666-0.635 1.403-1.772-0.317 0.103-0.532 0.205-0.819 0.236-0.451 0.727-1.014 1.434-1.751 2.171 0 0 0.297-0.553 0.738-1.444-1.987 1.392-5.796 4.638-5.796 8.253 0 0-2.417-1.136-3.789-3.154 0.573 1.608 1.475 3.216 2.97 4.495 0 0-1.597-0.809-3.042-2.55-1.095-0.645-3.738-2.375-4.608-5.55l-0.768 0.44c0.41 0.829 0.942 1.853 1.72 2.765 0 0-1.116-1.034-2.048-2.59l-1.669 0.798c0.471 0.932 1.095 1.904 2.018 2.877 0 0-0.922-0.686-1.853-1.884 0.297 1.075 0.205 2.345-3.113-1.372 0 0-15.166-6.574-19.538-20.173 0 0-2.54-6.124 0.85-24.115-4.864 2.273-1.546-9.575-1.546-9.575 0.492-3.184 1.792-4.546 2.652-5.11zM147.815 210.75c25.815-11.49 66.345-13.568 66.345-13.568 41.605-0.86 71.864 11.837 71.864 11.837 4.444 2.734 4.536 4.956 4.536 4.956 3.072 26.563-10.025 71.404-10.025 71.404-4.014 8.755-28.119 16.384-28.119 16.384-12.759 4.505-12.912 9.022-12.912 9.022-25.262-49.797-44.421-0.123-44.421-0.123-1.741-6.707-27.73-14.613-27.73-14.613-7.577-2.918-10.793-7.311-10.793-7.311-11.223-16.65-12.524-68.639-12.524-68.639 0.102-8.418 3.779-9.349 3.779-9.349zM114.852 146.954h179.159v24.351h-179.159v-24.351zM115.046 94.71h153.907v25.529h-153.907v-25.529zM397.568 402.985l0.891-25.273 23.818-0.512v-385.751h-256.666c0 0 0.666 10.425-0.030 25.651-24.125 0.615-25.282-0.144-25.282-0.144l0.205-48.958h308.019v434.647l-50.954 0.338z" />
<glyph unicode="&#xe622;" d="M511.887 38.236l0.082 331.182c0 10.496-8.56 29.102-19.005 29.102l-218.726 0.922c-7.465 0.195-19.641 2.867-19.641 8.089v2.202c0 11.12-9.103 20.275-20.275 20.275h-128.123c-11.172 0-20.224-9.134-20.224-20.275v-2.181c0-5.346-5.847-19.21-13.466-19.21h0.215c-10.343-0.164-18.77-8.55-18.77-18.944l0.072-88.76h-40.95c0 0-18.125 0.993-11.704-20.551l43.203-221.84c0-11.233 7.772-20.255 18.944-20.255h439.019c11.192 0 9.349 20.245 9.349 20.245zM483.051 252.068h-0.041l-0.215-222.761-37.468 238.797c-3.625 13.107-18.452 12.185-18.452 12.185h-349.461v61.143h405.637v-89.365z" />
<glyph unicode="&#xe623;" d="M512 214.17l-205.517 190.362v-123.966c-135.495-0.010-235.858 11.981-306.483 136.857 0 0 56.873-276.859 306.483-276.859v-109.978l205.517 183.583z" />
<glyph unicode="&#xe624;" d="M206.827 368.773c-114.227 0-206.827-70.953-206.827-158.546 0-42.967 22.272-81.961 58.501-110.52-2.13-29.061-9.124-64.717-29.522-83.856 40.561 0 81.992 25.313 108.186 45.138 21.78-6 45.23-9.247 69.662-9.247 114.279 0 206.889 70.882 206.889 158.495 0 87.582-92.611 158.536-206.889 158.536zM481.772 194.734c17.418 23.245 27.392 50.156 27.392 78.899 0 87.572-92.601 158.526-206.858 158.526-50.288 0-96.348-13.783-132.157-36.557 16.825 3.164 34.478 4.874 52.633 4.874 123.003 0 222.771-78.080 222.771-174.336 0-37.98-15.503-73.124-41.738-101.683 26.163-19.835 67.625-45.148 108.185-45.148-28.887 27.228-30.894 87.623-30.228 115.425z" />
<glyph unicode="&#xe625;" d="M256 479.836c-141.374 0-256-114.627-256-256 0-141.384 114.626-256 256-256 141.384 0 256 114.616 256 256s-114.616 256-256 256zM224 383.836c0 16.005 16.005 32 32 32s32-16.005 32-32v-128c0-16.005-16.005-32-32-32s-32 16.005-32 32v128zM256 63.836c-88.371 0-160 71.618-160 160 0 65.628 39.495 122 96 146.688v-75.141c-19.63-17.541-32-43.079-32-71.536 0-53.043 42.957-96 96-96s96 42.957 96 96c0 28.457-12.38 53.995-32 71.536v75.141c56.505-24.688 96-81.060 96-146.688 0-88.371-71.618-160-160-160z" />
<glyph unicode="&#xe626;" d="M510.474 302.448l-12.083-26.767c0 0-5.376 49.479-13.404 76.329-8.11 26.726-25.559 44.103-25.559 44.103l8.028-36.117c0 0-28.139 34.253-55.091 46.684-4.24 1.945-8.478 3.85-12.656 5.693-35.512 31.55-82.197 50.873-133.54 50.873-72.734 0-136.213-38.574-171.489-96.164-2.581 1.618-12.103 8.171-16.722 19.64-5.376 13.435-8.1 28.13-8.1 28.13-33.546-32.112-25.518-85.647-25.518-85.647s-13.445-13.363-26.849-34.796c-13.404-21.381-17.49-60.211-17.49-60.211l22.835 24.064c0 0-5.335-10.639-9.36-30.761-4.045-20.111-2.724-52.204-2.724-52.204l12.083 25.477c0 0 0-81.674 77.916-153.825 77.885-72.243 217.549-92.416 323.769-1.413 106.127 91.024 85.954 256.911 85.954 256.911zM266.178 436.982c41.452 0 79.483-14.448 109.435-38.482l-38.451-6.4c0 0 38.974-12.032 68.495-34.786 7.445-5.745 13.507-12.923 18.442-20.45 6.441-13.671 11.151-28.293 13.844-43.643l-18.8 14.602c0 0 6.625-8.069 8.028-29.42 1.321-21.433-5.458-60.252-5.458-60.252l-17.377 20.081c0 0 4.055-33.485-2.724-62.935-6.625-29.378-21.433-41.38-21.433-41.38l2.652 34.755c0 0-20.101-44.185-76.595-61.563-56.34-17.377-110.049 32.113-110.049 32.113 36.239-9.36 59.085 9.349 77.936 18.77 18.78 9.36 28.139 10.68 36.24 10.68 8.018 0 0 18.709-14.797 26.808-14.817 7.936-32.195 3.973-67.164-5.458-34.949-9.339-56.453 20.101-55.050 40.13 1.28 20.162 33.536 8.089 33.536 8.089l-1.321 40.172c0 0 53.668 33.392 49.695 41.452-4.055 8.028-22.845 5.304-39.025 10.711-16.056 5.335-25.477 20.060-25.477 20.060s-2.652 10.67 2.724 19.989c5.335 9.39 24.115 22.825 24.115 22.825s-12.083 1.321-32.225-5.376c-20.142-6.697-34.908-18.698-34.908-18.698s-3.963 1.229-20.409 2.519c32 39.659 81.029 65.086 136.12 65.086z" />
<glyph unicode="&#xe627;" d="M483.82 396.769l-85.299 75.090c-5.335 4.71-14.387 8.141-21.483 8.141h-196.014c-9.831 0-17.849-8.038-17.849-17.93v-369.296c0-9.933 8.007-17.981 17.849-17.981h294.738c9.831 0 17.849 8.048 17.849 17.94v282.45c0 7.577-4.127 16.64-9.789 21.586zM457.625 112.036h-258.478v330.731h148.060v-91.771c0-9.902 8.007-17.92 17.838-17.92h92.58v-221.041zM383.181 369.132l0.041 72.704 75.469-72.704h-75.51zM366.151 290.078l-85.289 75.090c-5.335 4.731-14.397 8.151-21.494 8.151h-196.014c-9.831 0-17.838-8.038-17.838-17.93v-369.305c0-9.882 8.008-17.92 17.838-17.92h294.748c9.81 0 17.828 8.038 17.828 17.92v282.419c0 7.567-4.116 16.64-9.779 21.575zM339.958 5.356h-258.468v330.731h148.060v-91.781c0-9.902 8.007-17.899 17.838-17.899h92.58v-221.051zM265.502 262.451l0.051 72.694 75.469-72.694h-75.52z" />
<glyph unicode="&#xe628;" d="M476.805 346.46c0 0.030-46.050 2.171-46.050 15.974 0 0 0 4.065 0 9.063 0 5.038-0.645 16.077-6.318 21.401-2.846 2.693-6.983 4.721-12.872 4.721h-31.938c0 0-17.029 0-17.029-15.975v-17.060c0-18.135-33.362-17.664-33.362-17.664l-137.206-0.092c0 0-33.987 0.738-33.987 15.586v21.75c0 0 1.054 13.793-17.040 13.793h-34.058c0 0-17.101 0-17.101-14.879v-20.633c0 0 0.635-8.888-13.189-13.404-10.506-3.451-55.286-0.174-66.355-9.718-5.816-4.915-10.302-13.168-10.302-26.89v-229.376c0 0 1.054-33.014 34.069-33.014h441.682c0 0 36.25 2.12 36.25 31.959v231.454c0 0-1.116 33.004-35.195 33.004zM379.587 363.55c0 9.39 6.635 17.050 16.005 17.050h1.065c9.421 0 17.101-7.66 17.101-17.050v-34.079c0-9.39-7.117-17.039-16.579-17.039h-1.055c-9.411 0-16.538 7.619-16.538 17.039v34.079zM321.239 193.116h85.176c4.741 0 8.54-3.81 8.54-8.53 0-4.711-3.799-8.51-8.54-8.51h-85.177c-4.741 0-8.54 3.799-8.54 8.51 0 4.721 3.799 8.53 8.54 8.53zM414.433 149.422c0-5.007-4.024-7.966-9.031-7.966h-83.108c-4.966 0-9.022 2.959-9.022 7.966s4.014 9.072 9.022 9.072h83.108c5.007 0 9.031-4.065 9.031-9.072zM167.424 295.322c26.297 0 47.595-23.327 47.595-54.794 0-31.447-21.299-56.996-47.596-56.996-26.306 0-47.575 25.549-47.575 56.996 0.010 31.468 21.269 54.794 47.575 54.794zM107.438 364.452c0 9.38 6.564 16.005 15.975 16.005h1.096c9.411 0 16.496-6.625 16.496-16.005v-34.98c0-9.39-7.649-17.039-17.029-17.039h-1.126c-9.349 0-15.411 7.619-15.411 17.039v34.98zM256.491 111.688c-4.167-5.99-13.506-5.212-13.506-5.212h-149.545c0 0-10.127-0.645-14.561 5.458-2.365 3.318-0.707 10.014 0.921 13.793l4.014 9.134c0 0 11.141 24.863 23.798 39.322 7.793 8.806 17.040 6.81 23.030 3.952 3.666-1.802 7.864-6.942 10.895-9.666 4.198-3.769 11.602-8.028 23.696-8.284h7.445c12.124 0.246 19.538 4.505 23.685 8.284 3.072 2.734 7.086 8.038 10.762 9.882 5.499 2.755 13.855 4.444 21.442-4.199 12.656-14.418 22.702-39.741 22.702-39.741l4.086-8.95c1.7-3.748 3.461-10.425 1.137-13.773zM407.276 107.878h-86.825c-4.587 0-8.253 3.676-8.253 8.253 0 4.546 3.656 8.305 8.253 8.305h86.825c4.505 0 8.253-3.748 8.253-8.305 0-4.567-3.738-8.253-8.253-8.253z" />
<glyph unicode="&#xe629;" d="M387.543 235.684l-239.37 239.452c-3.102 3.103-7.373 4.864-11.684 4.864-4.485 0-8.704-1.762-11.735-4.864l-0.317-0.307c-3.174-3.205-4.915-7.394-4.915-11.756v-116.193c0-4.434 1.751-8.673 4.915-11.725l111.145-111.247-111.145-111.084c-3.174-3.164-4.915-7.281-4.915-11.776v-116.121c0-4.464 1.751-8.776 4.915-11.725l0.317-0.297c3.205-3.308 7.444-4.905 11.735-4.905 4.208 0 8.478 1.598 11.684 4.905l239.37 239.339c6.574 6.41 6.574 17.049 0 23.44z" />
<glyph unicode="&#xe62a;" d="M443.525 288.164c2.007 3.891 3.522 8.11 4.352 12.534v94.31h-150.18v32.839c0 4.608-3.85 8.387-8.51 8.387h-131.738c-4.659 0-8.428-3.779-8.428-8.387v-32.839h-149.023v-105.575c6.359-17.48 23.183-22.036 42.977-22.036h18.37v21.433l66.785-0.471v-20.962h170.67c2.447 14.008 12.769 20.757 27.525 20.757h117.197zM277.534 395.008h-107.079v21.043h107.079v-21.043zM128.143 224.195h-66.796v21.719l-21.73-0.942c-17.162 0-29.154-1.833-39.618 10.087v-179.722h298.301v170.578h-170.158v-21.719zM476.354 267.541h-140.585c-8.765 0-15.923-7.076-15.923-15.8v-224.205c0-8.714 7.147-15.78 15.923-15.78h154.962c8.765 0 21.269 7.065 21.269 15.78v180.49l-35.645 59.515zM469.033 239.227l20.316-36.362h-20.316v36.362zM489.411 34.98c0-1.403-1.168-2.529-2.57-2.529h-143.022c-1.382 0-2.488 1.127-2.488 2.529v208.169c0 1.413 1.106 2.54 2.488 2.54h103.731v-56.699c0-3.676 2.99-6.635 6.635-6.635h35.216v-147.374zM465.582 75.172h-99.605c-3.123 0-5.673-6.892-5.673-9.994 0-3.051 2.55-10.486 5.673-10.486h99.605c3.123 0 5.601 6.769 5.601 9.82 0 3.113-2.488 10.66-5.601 10.66zM465.582 117.811h-99.605c-3.123 0-5.673-6.882-5.673-9.994 0-3.051 2.55-10.486 5.673-10.486h99.605c3.123 0 5.601 6.769 5.601 9.82 0 3.113-2.488 10.66-5.601 10.66zM360.315 150.446c0-3.051 2.55-10.486 5.673-10.486h99.604c3.123 0 5.601 6.769 5.601 9.82 0 3.123-2.478 10.66-5.601 10.66h-99.615c-3.113 0-5.663-6.871-5.663-9.994z" />
<glyph unicode="&#xe62b;" d="M354.325 362.619v79.053h-196.669v-79.053h-157.655v-80.528h512v80.528h-157.675zM315.341 360.919h-119.931v39.455h119.931v-39.455zM433.305 203.141h-78.377v40.581h-197.581v-39.342h-79.565v39.342h-77.783v-237.394h512v237.394h-78.695v-40.581z" />
<glyph unicode="&#xe62c;" d="M455.854 383.273c-3.205 3.952-8.858 4.116-12.452 0.481l-338.821-342.579c-3.584-3.625-3.41-9.349 0.522-12.606 98.007-80.926 242.514-75.377 333.926 17.050 91.392 92.365 96.86 238.5 16.825 337.654zM256 253.922c3.584-3.655 9.39-3.655 13.015 0l151.388 153.108c3.594 3.635 3.44 9.339-0.512 12.585-91.464 75.448-223.334 75.448-314.829 0-3.932-3.257-4.106-8.95-0.522-12.585l151.46-153.108zM233.124 241.387c-7.577 7.701-19.927 7.762-27.556 0.071l-141.302-141.742c-7.639-7.68-7.67-20.183-0.112-27.873 3.83-3.881 8.837-5.837 13.855-5.837 4.946 0 9.902 1.925 13.712 5.735l141.292 141.773c7.649 7.649 7.69 20.142 0.113 27.874zM185.067 288.44c-7.69 7.577-20.040 7.465-27.566-0.307l-126.966-131.072c-7.537-7.762-7.414-20.255 0.297-27.832 3.768-3.769 8.704-5.663 13.619-5.663 5.048 0 10.107 1.956 13.916 5.918l126.976 131.082c7.516 7.772 7.414 20.245-0.276 27.874zM135.895 305.121c7.536 7.803 7.434 20.275-0.256 27.874-7.71 7.619-20.040 7.486-27.576-0.276l-102.482-105.82c-7.547-7.762-7.434-20.214 0.277-27.832 3.789-3.769 8.704-5.663 13.639-5.663 5.049 0 10.107 1.997 13.916 5.918l102.482 105.799zM23.757 291.185c5.13 0 10.271 2.038 14.101 6.103l54.231 57.375c7.424 7.895 7.147 20.337-0.635 27.853-7.782 7.547-20.111 7.23-27.556-0.614l-54.211-57.395c-7.455-7.875-7.158-20.347 0.635-27.853 3.758-3.656 8.612-5.468 13.435-5.468z" />
<glyph unicode="&#xe62d;" d="M499.456 63.611l-47.872 10.599-2.274 72.96c-0.226 8.192-6.687 14.878-14.878 15.452l-61.123 4.26 1.351 60.702c0.154 7.045-4.229 13.281-10.854 15.565l-54.466 18.493c5.673 14.592 10.66 32.195 10.66 58.368 0 88.217-71.772 159.99-160 159.99s-160-71.772-160-160c0-88.228 71.772-160 160-160 11.459 0 29.154 3.205 40.581 5.57l220.857-193.598c2.949-2.591 6.687-3.973 10.567-3.973h64c8.827 0 15.995 7.168 15.995 15.974v64.031c0 7.486-5.192 14.019-12.544 15.606zM155.443 347.587c-7.67-16.251-24.238-27.587-43.438-27.587-26.522 0-48.005 21.504-48.005 48.005 0 26.522 21.474 48.005 48.005 48.005 26.491 0 48.005-21.474 48.005-48.005-0.010-7.301-1.638-14.183-4.567-20.418z" />
<glyph unicode="&#xe62e;" d="M290.334 354.529c1.956 7.219 1.546 13.189-1.762 17.142-7.404 8.642-26.757 5.376-49.705-6.441l-63.621 75.479c10.434 15.104 14.469 28.375 8.878 35.062-9.646 11.387-43.632-1.024-75.838-27.689-32.205-26.747-50.473-57.671-40.816-69.15 5.612-6.656 19.507-5.049 36.373 2.457l22.681-26.87h-77.251v-386.519h413.461v386.529h-172.4zM437.084-7.906h-362.209v337.889h72.387l20.275-24.013c-15.749-20.306-22.405-38.656-15.073-47.34 10.199-12.063 43.407-1.362 77.383 23.778l53.412-59.894c0 0 10.496-4.741 17.695 2.417 7.209 7.137 3.84 15.442 3.84 15.442l-53.412 59.924c10.711 9.953 19.63 20.121 26.358 29.675h159.344v-337.879zM100.987 123.515h309.852v25.784h-309.852v-25.784zM100.987 71.895h309.852v25.303h-309.852v-25.303zM100.987 20.214h309.852v24.443h-309.852v-24.443z" />
<glyph unicode="&#xe62f;" d="M430.878 98.58c-66.284 52.962-84.695 26.747-114.565-3.369-20.869-21.115-74.066 22.498-120.013 68.199-45.824 45.712-89.784 98.642-68.915 119.695 29.87 30.198 55.9 48.793 2.519 114.8-53.371 66.068-88.586 15.094-117.555-14.183-33.413-33.679-1.136-158.771 122.778-282.091 124.037-123.31 249.037-154.624 282.501-120.976 28.908 29.276 79.524 64.952 13.25 117.924zM324.721 292.311c27.402-27.413 32.809-53.269 36.055-70.39 0 0 1.321-8.786 7.547-15.033 10.496-10.517 27.709-10.066 37.673-0.092 9.707 9.718 7.557 23.603 7.557 23.603-5.397 34.693-22.2 70.953-50.985 99.81-28.856 28.856-65.024 45.701-99.625 51.128 0 0-13.865 2.161-23.572-7.557-9.953-9.984-10.373-27.259 0.123-37.786 6.236-6.206 14.992-7.557 14.992-7.557 17.029-3.195 42.823-8.622 70.236-36.126zM430.704 398.48c-78.336 78.448-158.587 85.77-198.533 79.954 0 0-10.558-1.382-17.040-7.864-10.025-10.138-10.68-27.167 0.123-37.97 9.472-9.605 24.166-7.168 24.166-7.168 46.183 7.025 103.229-14.418 153.426-64.809 50.258-50.35 71.67-107.479 64.707-153.795 0 0-2.447-14.633 7.137-24.228 10.731-10.803 27.771-10.199 37.847-0.092 6.482 6.482 7.906 17.060 7.906 17.060 5.785 39.998-1.474 120.514-79.739 198.912z" />
<glyph unicode="&#xe630;" d="M456.95 127.344c-36.864 18.873-74.978 34.55-113.561 49.337-2.857 1.075-6.308 3.298-7.486 5.806-3.154 6.974-5.315 14.336-7.598 21.606-1.413 4.69-2.652 9.063-7.762 11.325-1.362 0.615-2.652 3.287-2.652 5.028 0.327 16.947-3.615 34.724 8.96 49.49 0.368 0.471 0.553 1.095 0.819 1.659 6.769 14.807 7.926 31.774 17.408 45.589 0.236 0.297 0.286 0.768 0.348 1.157 1.086 10.567 2.233 21.043 3.144 31.559 0.082 1.29-1.055 3.625-2.181 4.034-5.202 1.813-4.925 6.031-4.905 10.22 0 20.572 0 23.552-0.031 44.124 0 11.96-3.533 22.579-12.554 30.72-10.312 9.247-20.88 18.186-31.447 27.116-5.058 4.311-10.793 13.885-39.526 13.885-29.471 0-43.254-12.032-61.031-26.726-12.144-10.025-21.873-21.709-23.091-38.247-0.614-8.663-0.542-17.387-0.614-26.030-0.071-14.142 0.133-10.711-0.174-24.812-0.082-2.294-1.331-6.082-2.949-6.584-5.703-1.874-5.898-5.519-5.1-10.281 0.563-3.287 0.133-6.687 0.839-9.881 1.966-8.848 4.076-17.685 6.625-26.368 1.863-6.471 5.54-12.595 6.605-19.179 2.007-13.159 6.912-24.586 15.81-34.529 1.444-1.659 2.55-4.413 2.375-6.595-0.696-10.087-1.741-20.244-3.102-30.3-0.297-1.956-2.345-4.874-4.004-5.253-6.748-1.372-7.772-6.553-9.4-11.806-2.089-6.912-4.352-13.824-7.035-20.5-0.829-2.099-2.918-4.25-4.987-5.202-11.94-5.161-24.136-9.984-36.178-15.043-12.8-5.376-25.764-10.547-38.287-16.476-12.892-6.185-25.426-13.107-38.052-19.906-7.434-3.963-14.387-8.366-20.194-13.824l-17.593-74.885c85.647 0 130.365-61.932 219.494-69.57l-32.839 45.312 50.923 139.295-15.749 33.833h31.559l-15.81-33.833 50.923-139.294-31.959-44.226c64.88 10.885 168.438 68.485 218.685 68.485l-17.572 75.807c-5.417 5.519-11.755 10.178-19.098 13.967z" />
<glyph unicode="&#xe631;" d="M124.457 212.245l239.37-239.339c3.205-3.308 7.475-4.905 11.684-4.905 4.291 0 8.53 1.598 11.735 4.905l0.317 0.297c3.175 2.939 4.915 7.26 4.915 11.725v116.122c0 4.495-1.751 8.622-4.915 11.776l-111.145 111.084 111.145 111.248c3.175 3.051 4.915 7.291 4.915 11.725v116.183c0 4.373-1.751 8.56-4.915 11.766l-0.317 0.307c-3.031 3.103-7.25 4.864-11.735 4.864-4.311 0-8.581-1.762-11.684-4.864l-239.37-239.463c-6.574-6.39-6.574-17.029 0-23.429z" />
<glyph unicode="&#xe632;" d="M255.98 480c-121.979 0-220.846-100.126-220.846-223.621 0-84.46 46.254-157.911 114.494-195.952l-2.621-92.426 104.213 65.045c1.607-0.072 3.154-0.276 4.762-0.276 122.020 0 220.887 100.137 220.887 223.621s-98.867 223.611-220.887 223.611zM246.088 121.918c-19.702 0-33.147 14.695-33.147 34.294 0 20.019 13.773 34.334 33.147 34.334 20.173 0 33.208-14.305 33.526-34.334 0.041-19.558-13.353-34.294-33.526-34.294zM291.154 262.236c-13.742-15.463-19.353-30.147-18.974-47.155v-6.759h-49.582l-0.379 9.779c-1.085 19.21 5.243 38.851 22.047 59.218 11.889 14.336 21.596 26.399 21.596 39.229 0 13.179-8.622 21.883-27.279 22.61-12.196 0-27.166-4.516-36.803-11.315l-12.708 41.165c13.445 7.895 35.748 15.39 62.239 15.39 49.193 0 71.526-27.495 71.526-58.829 0.010-28.621-17.49-47.483-31.683-63.334z" />
<glyph unicode="&#xe633;" d="M205.496 307.425v109.998l-205.496-183.644 205.496-190.29v123.986c135.495 0 235.797-12.002 306.504-136.899 0 0-56.904 276.849-306.503 276.849z" />
<glyph unicode="&#xe634;" d="M509.726 52.245v0.205h-466.954v384.103h-42.773v-425.103h512v40.786h-2.274zM171.673 201.748h-87.398v-105.319h87.388v105.318zM427.52 267.223h-86.917v-171.274h86.917v171.274zM298.558 415.805h-86.958v-318.085h86.958v318.085z" />
<glyph unicode="&#xe635;" d="M465.152 460.032h-418.304c-25.877 0-46.848-20.921-46.848-46.848v-378.347c0-25.877 20.971-46.858 46.848-46.858h418.304c25.866 0 46.848 20.982 46.848 46.858v378.348c0 25.928-20.982 46.848-46.848 46.848zM42.568 284.815h41.984v-42.23h-41.984v42.23zM85.883 73.442h-43.315v42.619h43.315v-42.619zM85.883 158.29h-43.315v43.735h43.315v-43.735zM339.958 73.442h-212.203v41.339h212.214v-41.339zM341.299 159.632h-214.887v42.394h214.887v-42.394zM341.299 242.585h-213.545v42.23h213.545v-42.23zM466.76 73.442h-82.841v41.339h82.841v-41.339zM466.76 159.632h-82.841v41.063h82.841v-41.063zM466.76 242.585h-84.183v42.23h84.183v-42.23z" />
<glyph unicode="&#xe636;" d="M282 257.587c-7.353 3.83-15.483 6.011-23.767 6.328l-25.559 53.627-1.485-59.331c-6.646-3.287-12.565-7.813-17.449-13.517l-31.57 11.254 23.091-24.299c-3.205-6.718-4.966-13.988-5.232-21.412l-53.596-25.559 59.392-1.485 0.594-1.178-74.865-98.447 98.478 74.772c7.342-3.738 15.391-6 23.757-6.318l25.477-53.606 1.557 59.31c6.635 3.277 12.585 7.895 17.428 13.517l31.56-11.172-23.050 24.3c3.134 6.717 4.915 13.988 5.243 21.33l53.534 25.559-59.402 1.566c-0.144 0.389-0.307 0.778-0.543 1.085l74.865 98.519-98.457-74.844zM211.845 189.143c-1.178 2.806-2.109 5.776-2.816 8.909-5.509 25.856 11.059 51.333 37.017 56.883 3.358 0.707 6.718 1.014 10.005 1.014 2.038 0 4.147-0.071 6.175-0.307 4.382-0.625 8.591-1.792 12.585-3.512l-35.789-27.197-27.177-35.789zM281.058 167.024c-4.536-2.734-9.615-4.854-15.094-6.021-3.358-0.686-6.717-1.014-10.005-1.014-2.109 0-4.147 0.082-6.174 0.389-4.382 0.553-8.591 1.721-12.585 3.44l35.789 27.197 27.187 35.779c1.188-2.806 2.13-5.786 2.755-8.827 4.373-20.48-4.997-40.632-21.873-50.944zM255.97 447.959c-12.032 0-23.828-0.85-35.379-2.57-0.154 0.389-0.317 0.778-0.502 1.168 6.421 4.956 9.79 11.878 8.294 18.749-1.792 8.796-11.151 14.695-23.184 14.695-2.581 0-5.243-0.266-7.854-0.86-15.042-3.205-25.047-14.295-22.743-25.272 1.444-6.646 7.148-11.653 15.083-13.671-0.041-0.512 0-0.983 0.041-1.444-100.342-28.805-173.752-121.211-173.752-230.779 0-132.536 107.49-239.974 239.995-239.974 132.608 0 240.056 107.438 240.056 239.975s-107.448 239.985-240.056 239.985zM182.416 455.547c-1.321 6.369 6.256 13.599 16.609 15.78 2.069 0.471 4.137 0.666 6.174 0.666 8.048 0 14.377-3.44 15.391-8.325 0.758-3.789-1.526-7.813-5.703-10.978-3.512 2.498-7.966 3.553-12.544 2.622-4.526-0.983-8.172-3.799-10.393-7.434-5.079 1.219-8.704 4.035-9.534 7.67zM384.656 79.268c-21.954-21.965-48.589-37.591-77.589-46.029l-21.258 34.375-5.315-39.998c-8.12-1.096-16.251-1.639-24.535-1.639-48.589 0-94.29 18.913-128.676 53.289-21.965 21.965-37.591 48.599-46.029 77.68l34.345 21.166-39.966 5.397c-1.096 8.038-1.648 16.159-1.648 24.453 0 48.599 18.954 94.331 53.299 128.717 21.995 21.965 48.64 37.632 77.671 46.070l21.156-34.375 5.386 39.966c8.048 1.096 16.251 1.639 24.464 1.639 48.681 0 94.31-18.913 128.686-53.299 22.046-21.954 37.683-48.599 46.111-77.68l-34.375-21.186 40.007-5.386c1.024-8.048 1.628-16.179 1.628-24.464 0.010-48.599-18.974-94.3-53.361-128.696z" />
<glyph unicode="&#xe637;" d="M329.165 340.91h43.858v47.196h-43.858v-47.196zM494.408 480h-476.856c-9.687 0-17.531-7.875-17.531-17.572v-476.856c0-9.687 7.844-17.572 17.531-17.572h476.856c9.697 0 17.572 7.885 17.572 17.572v476.856c0 9.697-7.875 17.572-17.572 17.572zM95.099 434.688h323.236v-140.421h-323.236v140.421zM420.639 14.039h-326.339v233.216h326.339v-233.216zM374.231 200.489h-233.584v-46.643h233.584v46.643zM374.231 108.913h-233.584v-46.592h233.584v46.592z" />
<glyph unicode="&#xe638;" d="M256 480c-141.374 0-256-114.626-256-256 0-141.384 114.626-256 256-256 141.384 0 256 114.616 256 256 0 141.374-114.616 256-256 256zM216.32 105.882l-117.79 117.791 45.251 45.25 72.53-72.56 153.866 153.877 45.25-45.251-199.107-199.107z" />
<glyph unicode="&#xe639;" d="M404.255 376.166h-36.864v9.584c0 18.883-15.288 34.161-34.14 34.161h-16.322c-0.461 33.331-27.607 60.089-60.938 60.089-33.321 0-60.477-26.757-60.959-60.089h-16.302c-18.852 0-34.14-15.278-34.14-34.161v-9.584h-36.864c-12.216 0-22.487-9.871-22.487-22.098v-363.94c-0.010-12.247 10.27-22.128 22.487-22.128h296.551c12.206 0 22.487 9.882 22.487 22.128v363.961c-0.021 12.206-10.291 22.077-22.507 22.077zM255.99 448.062c15.728 0 28.57-12.544 29.020-28.15h-58.050c0.482 15.606 13.302 28.15 29.030 28.15zM398.633-4.894h-285.286v354.017h31.242v-24.986h222.802v24.986h31.242v-354.017zM359.086 277.248h-71.803c-11.305 0-20.5-8.407-20.5-19.743 0-11.315 9.185-19.784 20.5-19.784h71.803c11.325 0 20.5 8.458 20.5 19.784 0 11.336-9.165 19.743-20.5 19.743zM183.44 258.499l-15.422 12.011c-3.799 2.99-9.257 2.499-12.493-1.085l-8.888-9.84c-1.69-1.884-2.54-4.393-2.334-6.943 0.226-2.55 1.475-4.894 3.471-6.451l26.88-21.218c6.492-5.12 15.79-4.588 21.627 1.28l47.125 47.114c2.274 2.284 3.564 5.356 3.564 8.591s-1.28 6.328-3.564 8.601l-5.386 5.376c-4.751 4.751-12.431 4.751-17.172 0l-37.406-37.438zM359.086 185.661h-71.803c-11.305 0-20.5-8.458-20.5-19.784 0-11.305 9.185-19.784 20.5-19.784h71.803c11.325 0 20.5 8.469 20.5 19.784 0 11.284-9.165 19.784-20.5 19.784zM183.44 166.882l-15.422 12.022c-3.799 2.99-9.257 2.488-12.493-1.106l-8.888-9.82c-1.69-1.904-2.54-4.423-2.334-6.974 0.226-2.529 1.475-4.864 3.471-6.43l26.88-21.218c6.502-5.13 15.8-4.557 21.648 1.26l47.135 47.145c2.284 2.263 3.564 5.356 3.564 8.581 0 3.205-1.28 6.329-3.564 8.612l-5.376 5.376c-4.741 4.731-12.431 4.731-17.183 0l-37.438-37.447zM359.086 97.157h-71.803c-11.305 0-20.5-8.448-20.5-19.804 0-11.315 9.185-19.784 20.5-19.784h71.803c11.325 0 20.5 8.458 20.5 19.784 0 11.356-9.165 19.804-20.5 19.804zM183.44 78.387l-15.422 12.032c-3.799 2.98-9.257 2.468-12.493-1.086l-8.888-9.831c-1.69-1.915-2.56-4.423-2.334-6.974 0.215-2.56 1.475-4.864 3.471-6.43l26.88-21.238c6.502-5.13 15.8-4.557 21.648 1.27l47.135 47.125c4.741 4.772 4.741 12.431 0 17.203l-5.376 5.356c-2.294 2.304-5.366 3.584-8.601 3.584s-6.308-1.28-8.591-3.584l-37.427-37.427z" />
<glyph unicode="&#xe63a;" d="M509.901 365.906l-43.817 43.755c-2.796 2.796-7.199 2.796-9.994 0l-268.708-268.636-131.338 131.44c-2.795 2.796-7.394 2.796-10.189 0l-43.755-43.755c-2.796-2.796-2.796-7.322 0-10.127l180.224-180.255c2.796-2.796 7.321-2.796 10.127 0l317.45 317.461c2.795 2.796 2.795 7.322 0 10.117z" />
<glyph unicode="&#xe63b;" d="M277.33 335.001c-5.888 5.858-13.814 9.104-22.047 9.104-8.304 0-16.169-3.308-22.057-9.104l-125.716-125.174c-12.114-12.083-12.114-31.795 0-43.93 12.165-12.083 31.918-12.083 44.094 0.062l72.489 72.182v-239.074c0-17.122 13.968-31.068 31.191-31.068s31.13 13.947 31.13 31.068v239.073l72.55-72.243c12.165-12.124 31.908-12.124 44.094 0 12.165 12.135 12.165 31.785 0 43.93l-125.726 125.174zM480.368 480h-448.738c-17.193 0-31.13-13.875-31.13-31.038v-152.944c0-17.132 6.728-31.007 23.921-31.007 17.285 0 22.538 13.875 22.538 31.007v136.356h416.645v-136.346c0-17.131 5.294-31.006 22.528-31.006 17.203 0 25.375 13.875 25.375 31.006v152.935c-0.010 17.162-13.947 31.038-31.14 31.038z" />
<glyph unicode="&#xe63c;" d="M489.769 26.419c-42.865 21.975-87.255 40.202-132.147 57.395-3.328 1.25-7.353 3.82-8.683 6.789-3.646 8.069-6.164 16.661-8.827 25.19-1.639 5.366-3.062 10.496-9.063 13.118-1.546 0.686-3.021 3.82-2.98 5.806 0.286 19.743-4.301 40.438 10.342 57.579 0.42 0.543 0.635 1.31 0.901 1.986 7.895 17.244 9.308 36.935 20.337 53.012 0.236 0.369 0.338 0.891 0.399 1.372 1.239 12.237 2.622 24.443 3.656 36.711 0.123 1.515-1.25 4.208-2.56 4.669-6.082 2.14-5.735 6.994-5.704 11.909 0 23.931 0 47.841-0.031 71.772-0.031 13.906-4.116 26.276-14.592 35.748-11.95 10.762-24.279 21.177-36.546 31.591-5.959 5.007-6.462 8.889-0.942 14.398 2.468 2.457 5.642 4.178 8.489 6.226-0.625 0.962-1.25 1.904-1.863 2.837-3.697 0-7.495 0.481-11.12-0.082-13.527-2.191-27.207-4.086-40.591-7.27-25.529-5.99-50.309-13.988-70.983-31.068-14.192-11.663-25.498-25.252-26.88-44.513-0.738-10.055-0.645-20.224-0.738-30.29-0.092-16.445 0.133-32.88-0.205-49.295-0.061-2.673-1.618-7.066-3.43-7.66-6.646-2.151-6.84-6.41-5.918-11.95 0.583-3.779 0.102-7.813 0.952-11.53 2.304-10.25 4.741-20.49 7.721-30.659 2.181-7.557 6.502-14.663 7.701-22.323 2.386-15.309 7.998-28.642 18.361-40.192 1.72-1.925 2.99-5.12 2.806-7.639-0.788-11.786-2.007-23.542-3.605-35.267-0.307-2.294-2.734-5.683-4.679-6.041-7.813-1.649-9.031-7.7-10.905-13.773-2.468-8.059-5.12-16.077-8.233-23.88-0.963-2.406-3.41-4.935-5.796-6.031-13.886-6.072-28.088-11.643-42.107-17.52-14.909-6.236-29.952-12.226-44.554-19.221-15.012-7.168-29.584-15.268-44.237-23.132-8.633-4.598-16.753-9.728-23.511-16.128v-25.805h512v26.921c-6.298 6.43-13.68 11.827-22.231 16.24z" />
<glyph unicode="&#xe63d;" d="M256 480c-141.168 0-256-114.832-256-256 0-141.148 114.832-256 256.021-256 141.148 0 255.979 114.852 255.979 256 0 141.168-114.852 256-256 256zM256.041-21.422c-56.094 0-110.951 19.497-154.522 54.917 2.345 25.63 8.694 71.649 25.16 96.113 1.168 1.454 7.536 8.96 20.48 13.875 11.367 3.512 39.454 12.82 54.815 23.972 0.727 0.389 1.444 1.106 2.018 1.741 1.423 1.526 3.594 3.84 6.154 6.247l1.444 1.362 1.464-1.382c13.527-12.738 28.498-19.753 42.137-19.753 14.336 0 29.123 6.205 42.803 17.971l1.096 0.921 2.857-1.413c2.591-2.345 7.086-5.642 9.175-6.615l2.673-1.3-0.276-0.307 1.178-0.707c2.529-1.526 5.253-3 8.499-4.577 3.236-1.433 5.959-2.488 8.786-3.41 2.386-0.768 15.012-5.038 29.389-11.684l2.755-0.809c14.029-5.386 20.275-12.851 20.93-13.639 16.681-24.75 23.091-70.892 25.436-96.625-43.582-35.399-98.437-54.897-154.45-54.897zM188.621 326.82c9.022 27.648 37.294 40.448 42.844 42.701 1.198 0.451 3.379 1.137 5.581 1.475l0.655 0.144 4.567 0.256 0.020-0.297 1.065 0.092c0.942 0.123 1.843 0.236 2.959 0.471l1.004 0.215c0.901 0 11.909-1.392 28.263-6.41l11.346-3.922c20.787-6.154 30.382-17.561 32.144-19.876 16.64-18.852 12.185-47.309 8.048-62.618-0.471-1.802-0.195-3.656 0.829-5.212l0.962-1.157c1.229-1.618 2.294-7.946-1.331-21.381-0.686-4.076-2.181-7.393-4.434-9.615-0.85-0.922-1.423-2.078-1.608-3.369-5.632-32.994-35.205-69.888-66.345-69.888-26.429 0-56.607 33.956-62.034 69.847-0.205 1.351-0.768 2.53-1.71 3.554-2.263 2.334-3.707 5.703-4.567 10.701-2.621 9.421-2.898 17.009-0.86 20.142l0.522 0.574c2.078 1.526 3.113 3.881 2.724 6.39-5.161 30.996-1.782 43.929-0.645 47.186zM422.236 43.571c-3.43 30.279-10.824 70.226-26.542 93.655l-0.88 1.024c-4.158 5.171-13.291 12.462-26.583 17.562l-2.079 0.604c-13.312 6.144-25.354 10.332-29.911 11.817l-0.358-1.045 0.082 1.137c-2.877 0.942-5.253 1.956-7.332 2.857-15.145 7.454-17.070 11.796-17.398 12.779l-0.758 1.741 0.645 1.567c11.387 14.213 19.385 30.771 22.436 46.346l0.389 0.942c3.216 4.024 5.223 8.755 6.041 13.936 3.594 13.046 3.758 22.651 0.491 29.358l-0.286 0.656 0.174 0.768c4.024 16.886 7.895 48.599-11.5 70.636-3.062 3.861-14.817 17.008-38.041 23.808l-11.305 3.881c-18.78 5.775-30.536 7.055-32.072 7.055-1.27 0-2.314-0.112-3.911-0.491l-1.495-0.256c-0.788 0.102-1.649 0.184-2.55 0.184-6 0-12.503-2.611-12.81-2.703-6.512-2.724-39.557-17.971-50.023-50.37-1.71-4.567-5.294-18.576-0.717-49.234l0.143-0.85-0.532-0.737c-4.7-6.288-5.079-16.538-1.137-30.341 1.004-6.093 2.99-10.967 5.959-14.663l0.492-1.095c2.877-16.026 10.005-31.846 20.633-45.783l0.901-1.229-0.829-1.26c-0.461-0.635-0.778-1.351-0.881-1.863-2.631-7.454-31.929-20.521-57.631-28.375-18.8-7.127-26.747-18.483-26.747-18.483-15.923-23.644-23.224-63.437-26.563-93.471-50.361 46.469-79.145 112.067-79.145 180.368 0 135.312 110.080 245.392 245.412 245.392 135.312 0 245.442-110.080 245.442-245.392 0-68.322-28.877-133.959-79.227-180.429z" />
<glyph unicode="&#xe63e;" d="M256 480c-141.168 0-256-114.832-256-256s114.832-256 256.021-256c141.148 0 255.979 114.832 255.979 256s-114.832 256-256 256zM186.020 272.691l0.522 0.573c2.089 1.505 3.113 3.881 2.724 6.37-5.141 31.017-1.772 43.94-0.614 47.175 9.001 27.668 37.274 40.448 42.834 42.721 1.178 0.451 3.369 1.116 5.581 1.475l0.655 0.164 4.536 0.236 0.041-0.276 1.065 0.092c0.942 0.102 1.843 0.215 2.959 0.45l1.004 0.215c0.881-0.020 11.899-1.413 28.252-6.41l11.377-3.901c20.777-6.165 30.351-17.593 32.113-19.865 16.65-18.882 12.175-47.36 8.059-62.649-0.471-1.802-0.174-3.666 0.829-5.202l0.942-1.147c1.229-1.649 2.314-7.946-1.31-21.401-0.686-4.076-2.202-7.373-4.444-9.605-0.839-0.922-1.392-2.069-1.598-3.369-5.632-32.983-35.185-69.878-66.345-69.878-26.429 0-56.607 33.935-62.044 69.837-0.215 1.341-0.768 2.53-1.69 3.554-2.274 2.345-3.696 5.734-4.577 10.711-2.642 9.38-2.908 16.947-0.87 20.132zM256.021-21.433c-56.084 0-110.919 19.507-154.491 54.907 2.335 25.651 8.663 71.67 25.15 96.144 1.147 1.454 7.527 8.94 20.46 13.875 11.367 3.492 39.465 12.83 54.815 23.962 0.717 0.379 1.444 1.116 2.028 1.751 1.413 1.526 3.594 3.84 6.165 6.257l1.434 1.331 1.454-1.372c13.527-12.749 28.508-19.733 42.179-19.733 14.326 0 29.123 6.195 42.803 17.961l1.065 0.901 2.908-1.413c2.56-2.345 7.055-5.611 9.154-6.615l2.673-1.31-0.266-0.276 1.168-0.717c2.529-1.526 5.284-3 8.51-4.587 3.236-1.433 5.939-2.488 8.765-3.41 2.386-0.768 15.022-5.017 29.389-11.673l2.775-0.819c14.039-5.386 20.286-12.872 20.9-13.65 16.691-24.75 23.101-70.912 25.467-96.615-43.612-35.389-98.457-54.897-154.501-54.897z" />
<glyph unicode="&#xe63f;" d="M452.413 374.825l-107.796 94.884c-6.707 5.959-18.176 10.291-27.136 10.291h-247.665c-12.391 0-22.538-10.178-22.538-22.661v-466.616c0-12.554 10.148-22.723 22.538-22.723h372.388c12.442 0 22.528 10.168 22.528 22.682v356.874c0 9.575-5.171 21.043-12.318 27.269zM419.287 15.063h-326.574v417.894h187.085v-115.968c0-12.503 10.087-22.631 22.538-22.631h116.951v-279.296zM325.243 339.927l0.062 91.842 95.365-91.842h-95.426z" />
<glyph unicode="&#xe640;" d="M192 96l160 128-160 128v-256zM256 480c-143.995 0-256-112.005-256-256s112.005-256 256-256 256 112.005 256 256-111.995 256-256 256zM256 32c-111.995 0-192 79.995-192 192s80.005 192 192 192 192-80.005 192-192-79.995-192-192-192z" />
<glyph unicode="&#xe641;" d="M503.327 358.113c-11.571 11.623-30.351 11.623-41.923 0l-205.384-205.394-205.404 205.394c-11.561 11.623-30.341 11.623-41.913 0-5.776-5.786-8.704-13.373-8.704-20.962s2.929-15.166 8.714-20.951l226.345-226.345c11.571-11.571 30.351-11.571 41.923 0l226.345 226.345c11.561 11.561 11.561 30.341 0 41.912z" />
<glyph unicode="&#xe642;" d="M455.106 480h-62.577c-15.708 0-22.753-12.728-22.753-28.447v-483.553h113.776v483.553c0.010 15.719-12.728 28.447-28.447 28.447zM284.437 309.33h-62.566c-15.708 0-22.763-12.729-22.763-28.447v-312.883h113.776v312.894c0.010 15.708-12.718 28.436-28.447 28.436zM113.776 138.67h-62.577c-15.718 0-22.764-12.738-22.764-28.447v-142.224h113.776v142.224c0.010 15.708-12.718 28.447-28.436 28.447z" />
<glyph unicode="&#xe643;" d="M242.555 216.402l127.815-221.42c-34.365-17.122-72.96-26.982-113.961-26.982-141.599 0-256.409 114.811-256.409 256.409 0 136.182 106.27 247.265 240.394 255.591v-255.591c0-2.755 0.717-5.509 2.161-8.007zM512 240.435h-239.565v239.565c128.768-7.977 231.588-110.797 239.565-239.565zM304.486 272.486h170.773c-18.616 85.105-85.668 152.136-170.773 170.773v-170.773zM398.203 10.854c64.88 43.161 108.697 115.088 113.797 197.54h-227.83l114.033-197.54z" />
<glyph unicode="&#xe644;" d="M456.079 287.908l-190.269 185.088c0 0-12.585 14.715-25.764 1.485-18.125-18.166-185.488-191.058-185.488-191.058s-23.152-22.958 7.557-22.958c30.751 0 79.688 0 79.688 0s0-13.333 0-33.721v-247.736c0 0-0.358-11.008 13.814-11.008h195.707c19.947 0 16.486 13.127 16.486 13.127v247.245c0 22.763 0 37.571 0 37.571s61.020 0 86.241 0c25.231 0 2.027 21.965 2.027 21.965z" />
</font>
</defs>
</svg>
